<svg width="400" height="114" viewBox="0 0 400 114" xmlns="http://www.w3.org/2000/svg"><style>@keyframes rmFadeUp{from{opacity:0;transform:translateY(20px)}to{opacity:1;transform:none}}@keyframes rmBreathe{0%,100%{opacity:.4;transform:scale(.85)}50%{opacity:1;transform:scale(1.12)}}.rm{animation:rmFadeUp .55s cubic-bezier(.25,.46,.45,.94) forwards}.dot{transform-box:fill-box;transform-origin:center;animation:rmBreathe 2.4s ease-in-out infinite}@media (prefers-reduced-motion:reduce){.rm,.dot{animation:none}}</style><g class="rm"><mask id="satori_om-id"><rect x="0" y="0" width="400" height="114" fill="#fff"/></mask><mask id="satori_om-id-0"><rect x="0" y="0" width="400" height="13" fill="#fff"/></mask><g  ><path fill="#7d8590" d="M2.1 11L0.7 11L0.7 3.5L5.7 3.5L5.7 4.8L2.1 4.8L2.1 6.8L5.2 6.8L5.2 8.0L2.1 8.0L2.1 11ZM12.2 11L7.7 11L7.7 3.5L9.0 3.5L9.0 9.8L12.2 9.8L12.2 11ZM15.1 11L13.6 11L16.2 3.5L17.9 3.5L20.5 11L19.0 11L18.5 9.4L15.6 9.4L15.1 11ZM17.2 4.5L16 8.2L18.1 8.2L16.9 4.5L17.2 4.5ZM25.7 11.1L25.7 11.1Q24.9 11.1 24.2 10.8Q23.5 10.5 23.0 10.0Q22.5 9.5 22.2 8.8Q21.9 8.1 21.9 7.3L21.9 7.3Q21.9 6.4 22.2 5.7Q22.5 5.0 23.0 4.5Q23.5 4 24.2 3.7Q24.8 3.4 25.6 3.4L25.6 3.4Q26.4 3.4 27.1 3.7Q27.7 4.0 28.1 4.4Q28.6 4.9 28.8 5.4L28.8 5.4L27.6 6.0Q27.4 5.4 26.9 5.0Q26.4 4.7 25.6 4.7L25.6 4.7Q24.9 4.7 24.4 5Q23.9 5.3 23.6 5.9Q23.3 6.5 23.3 7.3L23.3 7.3Q23.3 8.1 23.6 8.6Q23.9 9.2 24.4 9.6Q25.0 9.9 25.7 9.9L25.7 9.9Q26.2 9.9 26.7 9.7Q27.2 9.4 27.5 9.0Q27.8 8.6 27.8 8.0L27.8 8.0L27.8 7.5L28.4 8L25.6 8L25.6 6.8L29.1 6.8L29.1 7.6Q29.1 8.5 28.8 9.1Q28.6 9.8 28.1 10.2Q27.6 10.7 26.9 10.9Q26.3 11.1 25.7 11.1ZM34.0 11.1L34.0 11.1Q33.3 11.1 32.7 10.9Q32.1 10.6 31.6 10.1Q31.2 9.7 31.0 9.1L31.0 9.1L32.1 8.6Q32.4 9.2 32.9 9.6Q33.4 9.9 34.0 9.9L34.0 9.9Q34.4 9.9 34.7 9.8Q34.9 9.7 35.1 9.5Q35.2 9.3 35.2 9.0L35.2 9.0Q35.2 8.7 35.0 8.5Q34.8 8.3 34.4 8.1L34.4 8.1L33.0 7.7Q32.1 7.4 31.7 6.9Q31.3 6.3 31.3 5.6L31.3 5.6Q31.3 5.0 31.6 4.5Q31.9 4.0 32.5 3.7Q33.0 3.4 33.8 3.4L33.8 3.4Q34.4 3.4 35.0 3.7Q35.5 3.9 35.9 4.3Q36.4 4.7 36.6 5.3L36.6 5.3L35.4 5.8Q35.2 5.2 34.8 4.9Q34.3 4.6 33.8 4.6L33.8 4.6Q33.4 4.6 33.2 4.7Q32.9 4.8 32.7 5.1Q32.6 5.3 32.6 5.5L32.6 5.5Q32.6 5.8 32.8 6.1Q33 6.3 33.4 6.5L33.4 6.5L34.8 6.9Q35.7 7.2 36.1 7.7Q36.6 8.2 36.6 8.9L36.6 8.9Q36.6 9.6 36.2 10.1Q35.9 10.6 35.3 10.8Q34.7 11.1 34.0 11.1ZM40.2 11L38.9 11L38.9 3.5L40.2 3.5L40.2 6.8L43.4 6.8L43.4 3.5L44.8 3.5L44.8 11L43.4 11L43.4 8L40.2 8L40.2 11ZM48.7 11L47.3 11L47.3 3.5L48.7 3.5L48.7 11ZM52.6 11L51.2 11L51.2 3.5L54.0 3.5Q54.7 3.5 55.3 3.8Q55.9 4.1 56.2 4.6Q56.6 5.1 56.6 5.9L56.6 5.9Q56.6 6.6 56.2 7.2Q55.9 7.7 55.3 8.0Q54.7 8.3 54.0 8.3L54.0 8.3L52.6 8.3L52.6 11ZM52.6 4.8L52.6 7.0L54.0 7.0Q54.4 7.0 54.6 6.9Q54.9 6.8 55.1 6.5Q55.2 6.2 55.2 5.9L55.2 5.9Q55.2 5.5 55.1 5.3Q54.9 5.0 54.6 4.9Q54.4 4.8 54.0 4.8L54.0 4.8L52.6 4.8Z "/></g><mask id="satori_om-id-1"><rect x="0" y="27" width="400" height="69" fill="#fff"/></mask><mask id="satori_om-id-1-0"><rect x="0" y="27" width="80" height="23" fill="#fff"/></mask><g  ><path fill="#e6edf3" d="M3.1 44L1.1 44L1.1 32.8L5.2 32.8Q6.4 32.8 7.3 33.2Q8.1 33.6 8.6 34.4Q9.1 35.2 9.1 36.4L9.1 36.4Q9.1 37.5 8.6 38.3Q8.0 39.1 7.1 39.5L7.1 39.5L9.7 44L7.3 44L4.6 39.1L5.9 39.9L3.1 39.9L3.1 44ZM3.1 34.6L3.1 38.1L5.3 38.1Q5.8 38.1 6.2 37.9Q6.6 37.6 6.9 37.3Q7.1 36.9 7.1 36.4L7.1 36.4Q7.1 35.8 6.9 35.4Q6.6 35.1 6.2 34.8Q5.8 34.6 5.3 34.6L5.3 34.6L3.1 34.6ZM14.3 44.2L14.3 44.2Q13.0 44.2 12.0 43.6Q11.1 43.0 10.6 42.1Q10.1 41.1 10.1 39.9L10.1 39.9Q10.1 38.7 10.6 37.7Q11.1 36.8 12.0 36.2Q13.0 35.7 14.1 35.7L14.1 35.7Q15.1 35.7 15.8 36.0Q16.5 36.3 17.0 36.8Q17.5 37.4 17.8 38.1Q18.1 38.8 18.1 39.6L18.1 39.6Q18.1 39.9 18.1 40.1Q18.0 40.3 18.0 40.5L18.0 40.5L11.7 40.5L11.7 39.0L16.9 39.0L15.9 39.7Q16.1 39.0 15.9 38.5Q15.7 37.9 15.2 37.6Q14.7 37.3 14.1 37.3L14.1 37.3Q13.5 37.3 13.0 37.6Q12.5 37.9 12.3 38.5Q12.0 39.1 12.1 39.9L12.1 39.9Q12.0 40.7 12.3 41.2Q12.6 41.8 13.1 42.1Q13.6 42.5 14.3 42.5L14.3 42.5Q14.9 42.5 15.4 42.2Q15.9 41.9 16.2 41.4L16.2 41.4L17.7 42.2Q17.5 42.8 17.0 43.2Q16.5 43.7 15.8 43.9Q15.1 44.2 14.3 44.2ZM23.4 44.2L23.4 44.2Q22.2 44.2 21.2 43.6Q20.3 43.1 19.8 42.1Q19.2 41.1 19.2 39.9L19.2 39.9Q19.2 38.7 19.8 37.8Q20.3 36.8 21.2 36.2Q22.2 35.7 23.3 35.7L23.3 35.7Q24.3 35.7 25.0 36.0Q25.7 36.4 26.1 37.1L26.1 37.1L25.8 37.5L25.8 32.6L27.8 32.6L27.8 44L25.9 44L25.9 42.4L26.2 42.8Q25.7 43.5 25.0 43.8Q24.2 44.2 23.4 44.2ZM23.6 42.4L23.6 42.4Q24.2 42.4 24.8 42.1Q25.3 41.8 25.6 41.2Q25.8 40.6 25.8 39.9L25.8 39.9Q25.8 39.2 25.6 38.7Q25.3 38.1 24.8 37.8Q24.2 37.5 23.6 37.5L23.6 37.5Q22.9 37.5 22.4 37.8Q21.9 38.1 21.6 38.7Q21.3 39.2 21.3 39.9L21.3 39.9Q21.3 40.6 21.6 41.2Q21.9 41.8 22.4 42.1Q22.9 42.4 23.6 42.4ZM33.8 44L31.8 44L31.8 34.6L28.9 34.6L28.9 32.8L36.7 32.8L36.7 34.6L33.8 34.6L33.8 44ZM39.7 44L37.8 44L37.8 32.6L39.7 32.6L39.7 37.4L39.5 37.2Q39.8 36.4 40.4 36.0Q41.1 35.7 41.9 35.7L41.9 35.7Q42.8 35.7 43.5 36.0Q44.2 36.4 44.6 37.1Q45 37.8 45 38.8L45 38.8L45 44L43.0 44L43.0 39.2Q43.0 38.7 42.8 38.3Q42.6 37.9 42.2 37.7Q41.9 37.5 41.4 37.5L41.4 37.5Q40.9 37.5 40.5 37.7Q40.2 37.9 39.9 38.3Q39.7 38.7 39.7 39.2L39.7 39.2L39.7 44ZM48.6 44L46.7 44L46.7 35.8L48.5 35.8L48.5 37.7L48.4 37.4Q48.6 36.5 49.3 36.1Q49.9 35.8 50.7 35.8L50.7 35.8L51.2 35.8L51.2 37.5L50.5 37.5Q49.6 37.5 49.1 38.0Q48.6 38.5 48.6 39.5L48.6 39.5L48.6 44ZM56.1 44.2L56.1 44.2Q54.9 44.2 53.9 43.6Q53.0 43.0 52.5 42.1Q51.9 41.1 51.9 39.9L51.9 39.9Q51.9 38.7 52.5 37.7Q53.0 36.8 53.9 36.2Q54.9 35.7 56.0 35.7L56.0 35.7Q57.0 35.7 57.7 36.0Q58.4 36.3 58.9 36.8Q59.4 37.4 59.7 38.1Q60.0 38.8 60.0 39.6L60.0 39.6Q60.0 39.9 59.9 40.1Q59.9 40.3 59.9 40.5L59.9 40.5L53.6 40.5L53.6 39.0L58.8 39.0L57.8 39.7Q58.0 39.0 57.8 38.5Q57.6 37.9 57.1 37.6Q56.6 37.3 56.0 37.3L56.0 37.3Q55.4 37.3 54.9 37.6Q54.4 37.9 54.2 38.5Q53.9 39.1 54.0 39.9L54.0 39.9Q53.9 40.7 54.2 41.2Q54.5 41.8 55.0 42.1Q55.5 42.5 56.2 42.5L56.2 42.5Q56.8 42.5 57.3 42.2Q57.8 41.9 58.0 41.4L58.0 41.4L59.6 42.2Q59.4 42.8 58.9 43.2Q58.4 43.7 57.7 43.9Q57.0 44.2 56.1 44.2ZM63.9 44.2L63.9 44.2Q63.0 44.2 62.4 43.9Q61.8 43.6 61.4 43.1Q61.1 42.5 61.1 41.8L61.1 41.8Q61.1 41.2 61.4 40.6Q61.7 40.1 62.3 39.7Q63.0 39.4 63.9 39.2L63.9 39.2L66.6 38.8L66.6 40.3L64.3 40.7Q63.7 40.8 63.4 41.1Q63.1 41.3 63.1 41.8L63.1 41.8Q63.1 42.2 63.5 42.4Q63.8 42.7 64.3 42.7L64.3 42.7Q64.9 42.7 65.3 42.4Q65.8 42.2 66.1 41.7Q66.3 41.2 66.3 40.7L66.3 40.7L66.3 38.6Q66.3 38.0 65.9 37.7Q65.5 37.3 64.8 37.3L64.8 37.3Q64.2 37.3 63.7 37.7Q63.2 38.0 63.0 38.6L63.0 38.6L61.4 37.8Q61.6 37.1 62.2 36.7Q62.7 36.2 63.4 35.9Q64.1 35.7 64.9 35.7L64.9 35.7Q65.9 35.7 66.7 36.0Q67.5 36.4 67.9 37.0Q68.3 37.7 68.3 38.6L68.3 38.6L68.3 44L66.5 44L66.5 42.6L66.9 42.6Q66.6 43.1 66.1 43.5Q65.7 43.8 65.1 44.0Q64.6 44.2 63.9 44.2ZM73.9 44.2L73.9 44.2Q72.7 44.2 71.8 43.6Q70.9 43.1 70.3 42.1Q69.8 41.1 69.8 39.9L69.8 39.9Q69.8 38.7 70.3 37.8Q70.9 36.8 71.8 36.2Q72.8 35.7 73.9 35.7L73.9 35.7Q74.8 35.7 75.6 36.0Q76.3 36.4 76.7 37.1L76.7 37.1L76.4 37.5L76.4 32.6L78.4 32.6L78.4 44L76.5 44L76.5 42.4L76.7 42.8Q76.3 43.5 75.6 43.8Q74.8 44.2 73.9 44.2ZM74.1 42.4L74.1 42.4Q74.8 42.4 75.3 42.1Q75.8 41.8 76.1 41.2Q76.4 40.6 76.4 39.9L76.4 39.9Q76.4 39.2 76.1 38.7Q75.8 38.1 75.3 37.8Q74.8 37.5 74.1 37.5L74.1 37.5Q73.5 37.5 72.9 37.8Q72.4 38.1 72.1 38.7Q71.8 39.2 71.8 39.9L71.8 39.9Q71.8 40.6 72.1 41.2Q72.4 41.8 72.9 42.1Q73.5 42.4 74.1 42.4Z "/></g><line x1="0" y1="45.737" x2="79.28999999999999" y2="45.737" stroke="#e6edf3" stroke-width="1.5" stroke-linecap="square" transform=""/><mask id="satori_om-id-1-1"><rect x="84" y="27" width="14" height="23" fill="#fff"/></mask><g  ><path fill="#9198a1" d="M96.4 40.5L85.1 40.5L85.1 39.5L96.4 39.5L96.4 40.5Z "/></g><mask id="satori_om-id-1-2"><rect x="102" y="27" width="92" height="23" fill="#fff"/></mask><g  ><path fill="#9198a1" d="M103.4 44L102.2 44L106.2 32.8L107.5 32.8L111.6 44L110.4 44L109.4 41.3L104.4 41.3L103.4 44ZM107.1 33.7L104.8 40.1L109.0 40.1L106.7 33.7L107.1 33.7ZM115.6 44.2L115.6 44.2Q114.8 44.2 114.1 43.8Q113.4 43.4 113.0 42.7Q112.6 42.0 112.6 41.0L112.6 41.0L112.6 36.0L113.7 36.0L113.7 40.9Q113.7 41.5 114.0 42.0Q114.3 42.5 114.7 42.8Q115.2 43.1 115.8 43.1L115.8 43.1Q116.4 43.1 116.9 42.8Q117.4 42.5 117.7 42.0Q117.9 41.5 117.9 40.7L117.9 40.7L117.9 36.0L119.1 36.0L119.1 44L117.9 44L117.9 42.4L118.2 42.5Q117.9 43.3 117.2 43.7Q116.5 44.2 115.6 44.2ZM124.5 44.1L124.5 44.1Q123.4 44.1 122.8 43.5Q122.2 42.8 122.2 41.7L122.2 41.7L122.2 37.1L120.7 37.1L120.7 36.0L121.1 36.0Q121.6 36.0 121.9 35.6Q122.2 35.3 122.2 34.8L122.2 34.8L122.2 34.1L123.3 34.1L123.3 36.0L125.1 36.0L125.1 37.1L123.3 37.1L123.3 41.7Q123.3 42.1 123.4 42.4Q123.6 42.7 123.9 42.9Q124.2 43.0 124.6 43.0L124.6 43.0Q124.8 43.0 124.9 43.0Q125.1 43.0 125.2 43.0L125.2 43.0L125.2 44Q125.0 44.0 124.8 44.1Q124.6 44.1 124.5 44.1ZM130.7 44.2L130.7 44.2Q129.5 44.2 128.6 43.6Q127.7 43.1 127.1 42.1Q126.6 41.2 126.6 40.0L126.6 40.0Q126.6 38.8 127.1 37.8Q127.6 36.9 128.6 36.3Q129.5 35.8 130.7 35.8L130.7 35.8Q131.8 35.8 132.8 36.3Q133.7 36.9 134.2 37.8Q134.7 38.8 134.7 40.0L134.7 40.0Q134.7 41.2 134.2 42.1Q133.6 43.1 132.7 43.6Q131.8 44.2 130.7 44.2ZM130.7 43.1L130.7 43.1Q131.5 43.1 132.1 42.6Q132.8 42.2 133.2 41.5Q133.5 40.8 133.5 40.0L133.5 40.0Q133.5 39.1 133.2 38.4Q132.8 37.7 132.1 37.3Q131.5 36.9 130.7 36.9L130.7 36.9Q129.9 36.9 129.2 37.3Q128.5 37.7 128.2 38.4Q127.8 39.1 127.8 40.0L127.8 40.0Q127.8 40.8 128.2 41.5Q128.5 42.2 129.2 42.6Q129.9 43.1 130.7 43.1ZM137.8 44L136.7 44L136.7 36.0L137.8 36.0L137.8 37.5L137.6 37.5Q137.9 36.7 138.6 36.2Q139.3 35.8 140.2 35.8L140.2 35.8Q141.0 35.8 141.7 36.2Q142.4 36.6 142.8 37.2Q143.2 37.9 143.2 38.8L143.2 38.8L143.2 44L142.0 44L142.0 39.2Q142.0 38.5 141.8 38.0Q141.5 37.5 141.1 37.2Q140.6 36.9 140.0 36.9L140.0 36.9Q139.3 36.9 138.9 37.2Q138.4 37.5 138.1 38.0Q137.8 38.5 137.8 39.2L137.8 39.2L137.8 44ZM149.1 44.2L149.1 44.2Q147.9 44.2 147.0 43.6Q146.1 43.1 145.5 42.1Q145.0 41.2 145.0 40.0L145.0 40.0Q145.0 38.8 145.5 37.8Q146.1 36.9 147.0 36.3Q147.9 35.8 149.1 35.8L149.1 35.8Q150.3 35.8 151.2 36.3Q152.1 36.9 152.6 37.8Q153.2 38.8 153.2 40.0L153.2 40.0Q153.2 41.2 152.6 42.1Q152.1 43.1 151.1 43.6Q150.2 44.2 149.1 44.2ZM149.1 43.1L149.1 43.1Q149.9 43.1 150.5 42.6Q151.2 42.2 151.6 41.5Q152.0 40.8 152.0 40.0L152.0 40.0Q152.0 39.1 151.6 38.4Q151.2 37.7 150.5 37.3Q149.9 36.9 149.1 36.9L149.1 36.9Q148.3 36.9 147.6 37.3Q147.0 37.7 146.6 38.4Q146.2 39.1 146.2 40.0L146.2 40.0Q146.2 40.8 146.6 41.5Q147.0 42.2 147.6 42.6Q148.3 43.1 149.1 43.1ZM156.3 44L155.1 44L155.1 36.0L156.3 36.0L156.3 37.5L156.1 37.3Q156.4 36.6 157.1 36.2Q157.7 35.8 158.5 35.8L158.5 35.8Q159.4 35.8 160.2 36.3Q160.9 36.8 161.2 37.7L161.2 37.7L160.9 37.7Q161.2 36.8 162.0 36.3Q162.7 35.8 163.6 35.8L163.6 35.8Q164.4 35.8 165.1 36.2Q165.8 36.6 166.2 37.2Q166.6 37.9 166.6 38.8L166.6 38.8L166.6 44L165.5 44L165.5 39.2Q165.5 38.5 165.2 38.0Q165.0 37.5 164.5 37.2Q164.1 36.9 163.5 36.9L163.5 36.9Q162.9 36.9 162.4 37.2Q162.0 37.5 161.7 38.0Q161.4 38.5 161.4 39.2L161.4 39.2L161.4 44L160.3 44L160.3 39.2Q160.3 38.5 160.1 38.0Q159.8 37.5 159.3 37.2Q158.9 36.9 158.3 36.9L158.3 36.9Q157.7 36.9 157.3 37.2Q156.8 37.5 156.5 38.0Q156.3 38.5 156.3 39.2L156.3 39.2L156.3 44ZM172.5 44.2L172.5 44.2Q171.4 44.2 170.5 43.6Q169.5 43.1 169.0 42.1Q168.4 41.2 168.4 40.0L168.4 40.0Q168.4 38.8 169.0 37.8Q169.5 36.9 170.4 36.3Q171.4 35.8 172.5 35.8L172.5 35.8Q173.7 35.8 174.6 36.3Q175.5 36.9 176.1 37.8Q176.6 38.8 176.6 40.0L176.6 40.0Q176.6 41.2 176.1 42.1Q175.5 43.1 174.6 43.6Q173.7 44.2 172.5 44.2ZM172.5 43.1L172.5 43.1Q173.3 43.1 174.0 42.6Q174.6 42.2 175.0 41.5Q175.4 40.8 175.4 40.0L175.4 40.0Q175.4 39.1 175.0 38.4Q174.6 37.7 174.0 37.3Q173.3 36.9 172.5 36.9L172.5 36.9Q171.7 36.9 171.1 37.3Q170.4 37.7 170.0 38.4Q169.6 39.1 169.6 40.0L169.6 40.0Q169.6 40.8 170.0 41.5Q170.4 42.2 171.1 42.6Q171.7 43.1 172.5 43.1ZM181.4 44.2L181.4 44.2Q180.6 44.2 179.9 43.8Q179.2 43.4 178.8 42.7Q178.4 42.0 178.4 41.0L178.4 41.0L178.4 36.0L179.5 36.0L179.5 40.9Q179.5 41.5 179.8 42.0Q180.1 42.5 180.5 42.8Q181.0 43.1 181.6 43.1L181.6 43.1Q182.2 43.1 182.7 42.8Q183.2 42.5 183.5 42.0Q183.7 41.5 183.7 40.7L183.7 40.7L183.7 36.0L184.9 36.0L184.9 44L183.7 44L183.7 42.4L184.0 42.5Q183.7 43.3 183.0 43.7Q182.3 44.2 181.4 44.2ZM190.0 44.2L190.0 44.2Q188.8 44.2 187.9 43.6Q187.1 43.0 186.7 42.0L186.7 42.0L187.6 41.6Q188.0 42.3 188.6 42.7Q189.2 43.2 190.0 43.2L190.0 43.2Q190.7 43.2 191.2 42.8Q191.7 42.5 191.7 41.9L191.7 41.9Q191.7 41.5 191.4 41.2Q191.2 41.0 190.9 40.8Q190.6 40.7 190.3 40.6L190.3 40.6L189.2 40.3Q188.1 40.0 187.6 39.4Q187.1 38.9 187.1 38.1L187.1 38.1Q187.1 37.4 187.4 36.9Q187.8 36.4 188.4 36.1Q189.0 35.8 189.8 35.8L189.8 35.8Q190.8 35.8 191.6 36.3Q192.5 36.8 192.8 37.8L192.8 37.8L191.8 38.2Q191.5 37.6 191.0 37.2Q190.4 36.8 189.7 36.8L189.7 36.8Q189.1 36.8 188.7 37.1Q188.2 37.5 188.2 38.0L188.2 38.0Q188.2 38.4 188.5 38.7Q188.7 38.9 188.9 39.0Q189.2 39.1 189.4 39.2L189.4 39.2L190.8 39.6Q191.7 39.9 192.3 40.5Q192.8 41.1 192.8 41.9L192.8 41.9Q192.8 42.5 192.5 43.1Q192.1 43.6 191.5 43.9Q190.8 44.2 190.0 44.2Z "/></g><mask id="satori_om-id-1-3"><rect x="198" y="27" width="14" height="23" fill="#fff"/></mask><g  ><path fill="#9198a1" d="M199.4 44L198.2 44L202.2 32.8L203.5 32.8L207.6 44L206.4 44L205.4 41.3L200.4 41.3L199.4 44ZM203.1 33.7L200.8 40.1L205.0 40.1L202.7 33.7L203.1 33.7ZM210.3 44L209.1 44L209.1 32.8L210.3 32.8L210.3 44Z "/></g><mask id="satori_om-id-1-4"><rect x="216" y="27" width="91" height="23" fill="#fff"/></mask><g  ><path fill="#9198a1" d="M218.3 44L217.2 44L217.2 36.0L218.3 36.0L218.3 37.3L218.1 37.1Q218.4 36.5 219.0 36.2Q219.6 35.9 220.4 35.9L220.4 35.9L220.9 35.9L220.9 37.0L220.2 37.0Q219.3 37.0 218.8 37.5Q218.3 38.1 218.3 39.0L218.3 39.0L218.3 44ZM225.9 44.2L225.9 44.2Q224.8 44.2 223.9 43.6Q222.9 43.1 222.4 42.1Q221.9 41.2 221.9 40.0L221.9 40.0Q221.9 38.7 222.4 37.8Q222.9 36.9 223.8 36.3Q224.7 35.8 225.8 35.8L225.8 35.8Q226.6 35.8 227.3 36.1Q228 36.4 228.5 37.0Q229.0 37.5 229.2 38.2Q229.5 38.9 229.5 39.6L229.5 39.6Q229.5 39.8 229.5 39.9Q229.4 40.1 229.4 40.3L229.4 40.3L222.6 40.3L222.6 39.3L228.8 39.3L228.2 39.7Q228.4 38.9 228.0 38.2Q227.7 37.6 227.1 37.2Q226.5 36.8 225.8 36.8L225.8 36.8Q225.0 36.8 224.4 37.2Q223.7 37.6 223.4 38.3Q223.0 39.0 223.1 40.0L223.1 40.0Q223.0 40.9 223.4 41.6Q223.8 42.4 224.5 42.7Q225.1 43.1 225.9 43.1L225.9 43.1Q226.8 43.1 227.4 42.7Q228.0 42.3 228.3 41.7L228.3 41.7L229.3 42.2Q229.1 42.7 228.6 43.2Q228.1 43.6 227.4 43.9Q226.7 44.2 225.9 44.2ZM235.1 44.2L235.1 44.2Q234.0 44.2 233.1 43.6Q232.2 43.1 231.6 42.1Q231.1 41.2 231.1 40.0L231.1 40.0Q231.1 38.8 231.6 37.8Q232.2 36.9 233.0 36.3Q233.9 35.8 235.1 35.8L235.1 35.8Q236.1 35.8 236.9 36.2Q237.7 36.7 238.2 37.4L238.2 37.4L238.0 37.8L238.0 32.6L239.1 32.6L239.1 44L238.0 44L238.0 42.2L238.2 42.4Q237.8 43.2 236.9 43.7Q236.1 44.2 235.1 44.2ZM235.1 43.1L235.1 43.1Q235.9 43.1 236.6 42.6Q237.3 42.2 237.6 41.5Q238.0 40.9 238.0 40.0L238.0 40.0Q238.0 39.1 237.6 38.4Q237.3 37.7 236.6 37.3Q235.9 36.9 235.1 36.9L235.1 36.9Q234.3 36.9 233.7 37.3Q233.1 37.7 232.7 38.4Q232.3 39.1 232.3 40.0L232.3 40.0Q232.3 40.9 232.7 41.5Q233.1 42.2 233.7 42.6Q234.3 43.1 235.1 43.1ZM246.7 40.5L241.4 40.5L241.4 39.5L246.7 39.5L246.7 40.5ZM252.0 44.1L252.0 44.1Q250.9 44.1 250.3 43.5Q249.7 42.8 249.7 41.7L249.7 41.7L249.7 37.1L248.3 37.1L248.3 36.0L248.6 36.0Q249.1 36.0 249.4 35.6Q249.7 35.3 249.7 34.8L249.7 34.8L249.7 34.1L250.9 34.1L250.9 36.0L252.6 36.0L252.6 37.1L250.9 37.1L250.9 41.7Q250.9 42.1 251.0 42.4Q251.1 42.7 251.4 42.9Q251.7 43.0 252.2 43.0L252.2 43.0Q252.3 43.0 252.5 43.0Q252.6 43.0 252.8 43.0L252.8 43.0L252.8 44Q252.6 44.0 252.4 44.1Q252.1 44.1 252.0 44.1ZM258.1 44.2L258.1 44.2Q257.0 44.2 256.1 43.6Q255.2 43.1 254.6 42.1Q254.1 41.2 254.1 40.0L254.1 40.0Q254.1 38.7 254.6 37.8Q255.1 36.9 256.0 36.3Q256.9 35.8 258.0 35.8L258.0 35.8Q258.9 35.8 259.5 36.1Q260.2 36.4 260.7 37.0Q261.2 37.5 261.4 38.2Q261.7 38.9 261.7 39.6L261.7 39.6Q261.7 39.8 261.7 39.9Q261.7 40.1 261.6 40.3L261.6 40.3L254.8 40.3L254.8 39.3L261.0 39.3L260.4 39.7Q260.6 38.9 260.3 38.2Q259.9 37.6 259.3 37.2Q258.7 36.8 258.0 36.8L258.0 36.8Q257.2 36.8 256.6 37.2Q256.0 37.6 255.6 38.3Q255.2 39.0 255.3 40.0L255.3 40.0Q255.2 40.9 255.6 41.6Q256.0 42.4 256.7 42.7Q257.3 43.1 258.1 43.1L258.1 43.1Q259.0 43.1 259.6 42.7Q260.2 42.3 260.6 41.7L260.6 41.7L261.5 42.2Q261.3 42.7 260.8 43.2Q260.3 43.6 259.6 43.9Q258.9 44.2 258.1 44.2ZM265.8 44.2L265.8 44.2Q265.1 44.2 264.5 43.9Q263.9 43.6 263.5 43.1Q263.2 42.6 263.2 41.9L263.2 41.9Q263.2 41.3 263.5 40.8Q263.7 40.3 264.3 39.9Q264.9 39.5 265.8 39.4L265.8 39.4L268.9 38.9L268.9 39.9L266.0 40.4Q265.2 40.5 264.8 40.9Q264.4 41.3 264.4 41.9L264.4 41.9Q264.4 42.4 264.8 42.8Q265.2 43.2 265.9 43.2L265.9 43.2Q266.7 43.2 267.4 42.8Q268.0 42.5 268.3 41.9Q268.7 41.3 268.7 40.5L268.7 40.5L268.7 38.5Q268.7 37.8 268.1 37.3Q267.6 36.9 266.8 36.9L266.8 36.9Q266.0 36.9 265.5 37.2Q264.9 37.6 264.7 38.2L264.7 38.2L263.6 37.6Q263.9 37.1 264.4 36.7Q264.8 36.3 265.5 36.0Q266.1 35.8 266.8 35.8L266.8 35.8Q267.7 35.8 268.3 36.1Q269.0 36.5 269.4 37.1Q269.8 37.7 269.8 38.5L269.8 38.5L269.8 44L268.7 44L268.7 42.4L268.8 42.6Q268.6 43.0 268.2 43.4Q267.7 43.7 267.1 44.0Q266.6 44.2 265.8 44.2ZM273.2 44L272.1 44L272.1 36.0L273.2 36.0L273.2 37.5L273.0 37.3Q273.4 36.6 274.0 36.2Q274.7 35.8 275.5 35.8L275.5 35.8Q276.4 35.8 277.1 36.3Q277.9 36.8 278.2 37.7L278.2 37.7L277.9 37.7Q278.2 36.8 278.9 36.3Q279.7 35.8 280.6 35.8L280.6 35.8Q281.4 35.8 282.1 36.2Q282.8 36.6 283.2 37.2Q283.6 37.9 283.6 38.8L283.6 38.8L283.6 44L282.4 44L282.4 39.2Q282.4 38.5 282.2 38.0Q281.9 37.5 281.5 37.2Q281.0 36.9 280.4 36.9L280.4 36.9Q279.9 36.9 279.4 37.2Q278.9 37.5 278.7 38.0Q278.4 38.5 278.4 39.2L278.4 39.2L278.4 44L277.3 44L277.3 39.2Q277.3 38.5 277.0 38.0Q276.8 37.5 276.3 37.2Q275.8 36.9 275.3 36.9L275.3 36.9Q274.7 36.9 274.2 37.2Q273.8 37.5 273.5 38.0Q273.2 38.5 273.2 39.2L273.2 39.2L273.2 44ZM286.8 44L285.7 44L285.7 36.0L286.8 36.0L286.8 44ZM286.8 34.5L285.7 34.5L285.7 32.8L286.8 32.8L286.8 34.5ZM290.3 44L289.2 44L289.2 36.0L290.3 36.0L290.3 37.5L290.0 37.5Q290.3 36.7 291.0 36.2Q291.7 35.8 292.6 35.8L292.6 35.8Q293.4 35.8 294.1 36.2Q294.8 36.6 295.2 37.2Q295.6 37.9 295.6 38.8L295.6 38.8L295.6 44L294.5 44L294.5 39.2Q294.5 38.5 294.2 38.0Q294.0 37.5 293.5 37.2Q293.0 36.9 292.4 36.9L292.4 36.9Q291.8 36.9 291.3 37.2Q290.8 37.5 290.6 38.0Q290.3 38.5 290.3 39.2L290.3 39.2L290.3 44ZM301.6 47.3L301.6 47.3Q300.7 47.3 300.0 47.0Q299.3 46.8 298.8 46.3Q298.3 45.9 298.1 45.3L298.1 45.3L299.1 44.8Q299.3 45.3 300.0 45.8Q300.6 46.2 301.5 46.2L301.5 46.2Q302.3 46.2 302.9 45.9Q303.5 45.6 303.9 45.0Q304.2 44.5 304.2 43.7L304.2 43.7L304.2 41.9L304.4 42.1Q304.0 42.9 303.2 43.4Q302.4 43.9 301.4 43.9L301.4 43.9Q300.3 43.9 299.4 43.3Q298.5 42.8 297.9 41.9Q297.4 41.0 297.4 39.8L297.4 39.8Q297.4 38.7 297.9 37.8Q298.5 36.9 299.3 36.3Q300.2 35.8 301.4 35.8L301.4 35.8Q302.4 35.8 303.2 36.2Q304.0 36.7 304.4 37.4L304.4 37.4L304.2 37.8L304.2 36.0L305.4 36.0L305.4 43.7Q305.4 44.7 304.9 45.5Q304.4 46.4 303.5 46.8Q302.7 47.3 301.6 47.3ZM301.4 42.8L301.4 42.8Q302.2 42.8 302.9 42.4Q303.5 42.0 303.9 41.3Q304.2 40.6 304.2 39.8L304.2 39.8Q304.2 39.0 303.9 38.4Q303.5 37.7 302.9 37.3Q302.2 36.9 301.4 36.9L301.4 36.9Q300.6 36.9 300 37.3Q299.4 37.7 299.0 38.4Q298.6 39.0 298.6 39.8L298.6 39.8Q298.6 40.6 299.0 41.3Q299.4 42.0 300.0 42.4Q300.6 42.8 301.4 42.8Z "/></g><mask id="satori_om-id-1-5"><rect x="311" y="27" width="50" height="23" fill="#fff"/></mask><g  ><path fill="#9198a1" d="M315.8 44.2L315.8 44.2Q314.7 44.2 313.8 43.6Q312.9 43.1 312.4 42.1Q311.8 41.2 311.8 40.0L311.8 40.0Q311.8 38.7 312.3 37.8Q312.8 36.9 313.7 36.3Q314.6 35.8 315.7 35.8L315.7 35.8Q316.6 35.8 317.2 36.1Q317.9 36.4 318.4 37.0Q318.9 37.5 319.1 38.2Q319.4 38.9 319.4 39.6L319.4 39.6Q319.4 39.8 319.4 39.9Q319.4 40.1 319.3 40.3L319.3 40.3L312.5 40.3L312.5 39.3L318.7 39.3L318.2 39.7Q318.3 38.9 318.0 38.2Q317.6 37.6 317.0 37.2Q316.4 36.8 315.7 36.8L315.7 36.8Q314.9 36.8 314.3 37.2Q313.7 37.6 313.3 38.3Q312.9 39.0 313.0 40.0L313.0 40.0Q312.9 40.9 313.3 41.6Q313.7 42.4 314.4 42.7Q315.1 43.1 315.8 43.1L315.8 43.1Q316.7 43.1 317.3 42.7Q317.9 42.3 318.3 41.7L318.3 41.7L319.2 42.2Q319.0 42.7 318.5 43.2Q318.0 43.6 317.3 43.9Q316.6 44.2 315.8 44.2ZM322.5 44L321.4 44L321.4 36.0L322.5 36.0L322.5 37.5L322.3 37.5Q322.6 36.7 323.2 36.2Q323.9 35.8 324.8 35.8L324.8 35.8Q325.7 35.8 326.4 36.2Q327.0 36.6 327.4 37.2Q327.8 37.9 327.8 38.8L327.8 38.8L327.8 44L326.7 44L326.7 39.2Q326.7 38.5 326.4 38.0Q326.2 37.5 325.7 37.2Q325.2 36.9 324.6 36.9L324.6 36.9Q324.0 36.9 323.5 37.2Q323.0 37.5 322.8 38.0Q322.5 38.5 322.5 39.2L322.5 39.2L322.5 44ZM333.8 47.3L333.8 47.3Q333.0 47.3 332.3 47.0Q331.6 46.8 331.1 46.3Q330.6 45.9 330.3 45.3L330.3 45.3L331.3 44.8Q331.6 45.3 332.2 45.8Q332.8 46.2 333.8 46.2L333.8 46.2Q334.5 46.2 335.1 45.9Q335.7 45.6 336.1 45.0Q336.5 44.5 336.5 43.7L336.5 43.7L336.5 41.9L336.7 42.1Q336.2 42.9 335.4 43.4Q334.6 43.9 333.6 43.9L333.6 43.9Q332.5 43.9 331.6 43.3Q330.7 42.8 330.2 41.9Q329.6 41.0 329.6 39.8L329.6 39.8Q329.6 38.7 330.2 37.8Q330.7 36.9 331.6 36.3Q332.5 35.8 333.6 35.8L333.6 35.8Q334.6 35.8 335.4 36.2Q336.2 36.7 336.7 37.4L336.7 37.4L336.5 37.8L336.5 36.0L337.6 36.0L337.6 43.7Q337.6 44.7 337.1 45.5Q336.6 46.4 335.8 46.8Q334.9 47.3 333.8 47.3ZM333.7 42.8L333.7 42.8Q334.4 42.8 335.1 42.4Q335.7 42.0 336.1 41.3Q336.5 40.6 336.5 39.8L336.5 39.8Q336.5 39.0 336.1 38.4Q335.7 37.7 335.1 37.3Q334.4 36.9 333.7 36.9L333.7 36.9Q332.9 36.9 332.2 37.3Q331.6 37.7 331.2 38.4Q330.8 39.0 330.8 39.8L330.8 39.8Q330.8 40.6 331.2 41.3Q331.6 42.0 332.2 42.4Q332.9 42.8 333.7 42.8ZM341.0 44L339.9 44L339.9 36.0L341.0 36.0L341.0 44ZM341.0 34.5L339.9 34.5L339.9 32.8L341.0 32.8L341.0 34.5ZM344.5 44L343.3 44L343.3 36.0L344.5 36.0L344.5 37.5L344.2 37.5Q344.5 36.7 345.2 36.2Q345.9 35.8 346.8 35.8L346.8 35.8Q347.6 35.8 348.3 36.2Q349.0 36.6 349.4 37.2Q349.8 37.9 349.8 38.8L349.8 38.8L349.8 44L348.7 44L348.7 39.2Q348.7 38.5 348.4 38.0Q348.1 37.5 347.7 37.2Q347.2 36.9 346.6 36.9L346.6 36.9Q346.0 36.9 345.5 37.2Q345.0 37.5 344.7 38.0Q344.5 38.5 344.5 39.2L344.5 39.2L344.5 44ZM355.6 44.2L355.6 44.2Q354.5 44.2 353.6 43.6Q352.7 43.1 352.1 42.1Q351.6 41.2 351.6 40.0L351.6 40.0Q351.6 38.7 352.1 37.8Q352.6 36.9 353.5 36.3Q354.4 35.8 355.5 35.8L355.5 35.8Q356.3 35.8 357.0 36.1Q357.7 36.4 358.2 37.0Q358.7 37.5 358.9 38.2Q359.2 38.9 359.2 39.6L359.2 39.6Q359.2 39.8 359.2 39.9Q359.2 40.1 359.1 40.3L359.1 40.3L352.3 40.3L352.3 39.3L358.5 39.3L357.9 39.7Q358.1 38.9 357.7 38.2Q357.4 37.6 356.8 37.2Q356.2 36.8 355.5 36.8L355.5 36.8Q354.7 36.8 354.1 37.2Q353.5 37.6 353.1 38.3Q352.7 39.0 352.8 40.0L352.8 40.0Q352.7 40.9 353.1 41.6Q353.5 42.4 354.2 42.7Q354.8 43.1 355.6 43.1L355.6 43.1Q356.5 43.1 357.1 42.7Q357.7 42.3 358.1 41.7L358.1 41.7L359.0 42.2Q358.8 42.7 358.3 43.2Q357.8 43.6 357.1 43.9Q356.4 44.2 355.6 44.2Z "/></g><mask id="satori_om-id-1-6"><rect x="0" y="50" width="97" height="23" fill="#fff"/></mask><g  ><path fill="#9198a1" d="M4.9 67.2L4.9 67.2Q3.8 67.2 2.9 66.6Q1.9 66.1 1.4 65.1Q0.8 64.2 0.8 63.0L0.8 63.0Q0.8 61.8 1.4 60.8Q1.9 59.9 2.8 59.3Q3.8 58.8 4.9 58.8L4.9 58.8Q6.1 58.8 7.0 59.3Q7.9 59.9 8.5 60.8Q9 61.8 9 63.0L9 63.0Q9 64.2 8.4 65.1Q7.9 66.1 7.0 66.6Q6.0 67.2 4.9 67.2ZM4.9 66.1L4.9 66.1Q5.7 66.1 6.4 65.7Q7.0 65.2 7.4 64.5Q7.8 63.8 7.8 63.0L7.8 63.0Q7.8 62.1 7.4 61.4Q7.0 60.7 6.4 60.3Q5.7 59.9 4.9 59.9L4.9 59.9Q4.1 59.9 3.5 60.3Q2.8 60.7 2.4 61.4Q2.0 62.1 2.0 63.0L2.0 63.0Q2.0 63.8 2.4 64.5Q2.8 65.2 3.5 65.7Q4.1 66.1 4.9 66.1ZM12.1 67L11.0 67L11.0 59.0L12.1 59.0L12.1 60.3L12.0 60.1Q12.2 59.5 12.8 59.2Q13.4 58.9 14.2 58.9L14.2 58.9L14.7 58.9L14.7 60.0L14.0 60.0Q13.2 60.0 12.6 60.5Q12.1 61.1 12.1 62.0L12.1 62.0L12.1 67ZM19.7 67.2L19.7 67.2Q18.5 67.2 17.6 66.6Q16.7 66.1 16.2 65.1Q15.7 64.2 15.7 63.0L15.7 63.0Q15.7 61.8 16.2 60.8Q16.7 59.9 17.6 59.3Q18.5 58.8 19.7 58.8L19.7 58.8Q20.5 58.8 21.1 59.0Q21.8 59.3 22.3 59.8Q22.8 60.2 23.1 60.8L23.1 60.8L22.0 61.4Q21.8 60.7 21.1 60.3Q20.5 59.9 19.7 59.9L19.7 59.9Q18.9 59.9 18.3 60.3Q17.7 60.7 17.3 61.4Q16.9 62.1 16.9 63.0L16.9 63.0Q16.9 63.9 17.3 64.5Q17.7 65.2 18.3 65.7Q18.9 66.1 19.7 66.1L19.7 66.1Q20.5 66.1 21.1 65.7Q21.7 65.2 22.0 64.6L22.0 64.6L23.1 65.1Q22.8 65.7 22.3 66.2Q21.8 66.6 21.1 66.9Q20.5 67.2 19.7 67.2ZM26.2 67L25.1 67L25.1 55.6L26.2 55.6L26.2 60.5L25.9 60.5Q26.2 59.7 26.9 59.2Q27.6 58.8 28.5 58.8L28.5 58.8Q29.3 58.8 30.0 59.2Q30.7 59.6 31.1 60.2Q31.5 60.9 31.5 61.8L31.5 61.8L31.5 67L30.4 67L30.4 62.2Q30.4 61.5 30.1 61.0Q29.8 60.5 29.4 60.2Q28.9 59.9 28.3 59.9L28.3 59.9Q27.7 59.9 27.2 60.2Q26.7 60.5 26.5 61.0Q26.2 61.5 26.2 62.2L26.2 62.2L26.2 67ZM37.3 67.2L37.3 67.2Q36.2 67.2 35.3 66.6Q34.4 66.1 33.8 65.1Q33.3 64.2 33.3 63.0L33.3 63.0Q33.3 61.7 33.8 60.8Q34.3 59.9 35.2 59.3Q36.1 58.8 37.2 58.8L37.2 58.8Q38.1 58.8 38.7 59.1Q39.4 59.4 39.9 60.0Q40.4 60.5 40.6 61.2Q40.9 61.9 40.9 62.6L40.9 62.6Q40.9 62.8 40.9 62.9Q40.9 63.1 40.8 63.3L40.8 63.3L34.0 63.3L34.0 62.3L40.2 62.3L39.6 62.7Q39.8 61.9 39.5 61.2Q39.1 60.6 38.5 60.2Q37.9 59.8 37.2 59.8L37.2 59.8Q36.4 59.8 35.8 60.2Q35.2 60.6 34.8 61.3Q34.4 62.0 34.5 63.0L34.5 63.0Q34.4 63.9 34.8 64.6Q35.2 65.3 35.9 65.7Q36.5 66.1 37.3 66.1L37.3 66.1Q38.2 66.1 38.8 65.7Q39.4 65.3 39.8 64.7L39.8 64.7L40.7 65.2Q40.5 65.7 40.0 66.2Q39.5 66.6 38.8 66.9Q38.1 67.2 37.3 67.2ZM45.7 67.2L45.7 67.2Q44.5 67.2 43.6 66.6Q42.8 66.0 42.4 65.0L42.4 65.0L43.3 64.6Q43.7 65.3 44.3 65.7Q44.9 66.2 45.7 66.2L45.7 66.2Q46.4 66.2 46.9 65.8Q47.4 65.5 47.4 64.9L47.4 64.9Q47.4 64.5 47.1 64.2Q46.9 64.0 46.6 63.8Q46.3 63.7 46.0 63.6L46.0 63.6L44.9 63.3Q43.8 63.0 43.3 62.4Q42.8 61.9 42.8 61.1L42.8 61.1Q42.8 60.4 43.1 59.9Q43.5 59.4 44.1 59.1Q44.7 58.8 45.5 58.8L45.5 58.8Q46.5 58.8 47.3 59.3Q48.1 59.8 48.5 60.8L48.5 60.8L47.5 61.2Q47.2 60.6 46.7 60.2Q46.1 59.8 45.4 59.8L45.4 59.8Q44.7 59.8 44.3 60.1Q43.9 60.5 43.9 61.0L43.9 61.0Q43.9 61.4 44.1 61.7Q44.4 61.9 44.6 62.0Q44.9 62.1 45.1 62.2L45.1 62.2L46.5 62.6Q47.4 62.9 48.0 63.5Q48.5 64.1 48.5 64.9L48.5 64.9Q48.5 65.5 48.2 66.1Q47.8 66.6 47.1 66.9Q46.5 67.2 45.7 67.2ZM53.6 67.1L53.6 67.1Q52.5 67.1 51.9 66.5Q51.3 65.8 51.3 64.7L51.3 64.7L51.3 60.1L49.8 60.1L49.8 59.0L50.2 59.0Q50.7 59.0 51.0 58.6Q51.3 58.3 51.3 57.8L51.3 57.8L51.3 57.1L52.5 57.1L52.5 59.0L54.2 59.0L54.2 60.1L52.5 60.1L52.5 64.7Q52.5 65.1 52.6 65.4Q52.7 65.7 53.0 65.9Q53.3 66.0 53.8 66.0L53.8 66.0Q53.9 66.0 54.1 66.0Q54.2 66.0 54.3 66.0L54.3 66.0L54.3 67Q54.2 67.0 53.9 67.1Q53.7 67.1 53.6 67.1ZM57.4 67L56.3 67L56.3 59.0L57.4 59.0L57.4 60.3L57.3 60.1Q57.6 59.5 58.2 59.2Q58.7 58.9 59.6 58.9L59.6 58.9L60.1 58.9L60.1 60.0L59.4 60.0Q58.5 60.0 58.0 60.5Q57.4 61.1 57.4 62.0L57.4 62.0L57.4 67ZM63.7 67.2L63.7 67.2Q63.0 67.2 62.4 66.9Q61.8 66.6 61.4 66.1Q61.1 65.6 61.1 64.9L61.1 64.9Q61.1 64.3 61.3 63.8Q61.6 63.3 62.2 62.9Q62.7 62.5 63.6 62.4L63.6 62.4L66.8 61.9L66.8 62.9L63.9 63.4Q63.0 63.5 62.6 63.9Q62.3 64.3 62.3 64.9L62.3 64.9Q62.3 65.4 62.7 65.8Q63.1 66.2 63.8 66.2L63.8 66.2Q64.6 66.2 65.2 65.8Q65.8 65.5 66.2 64.9Q66.5 64.3 66.5 63.5L66.5 63.5L66.5 61.5Q66.5 60.8 66.0 60.3Q65.5 59.9 64.6 59.9L64.6 59.9Q63.9 59.9 63.4 60.2Q62.8 60.6 62.5 61.2L62.5 61.2L61.5 60.6Q61.7 60.1 62.2 59.7Q62.7 59.3 63.3 59.0Q64.0 58.8 64.6 58.8L64.6 58.8Q65.5 58.8 66.2 59.1Q66.9 59.5 67.3 60.1Q67.7 60.7 67.7 61.5L67.7 61.5L67.7 67L66.5 67L66.5 65.4L66.7 65.6Q66.5 66.0 66.1 66.4Q65.6 66.7 65.0 67.0Q64.4 67.2 63.7 67.2ZM72.9 67.1L72.9 67.1Q71.8 67.1 71.2 66.5Q70.6 65.8 70.6 64.7L70.6 64.7L70.6 60.1L69.2 60.1L69.2 59.0L69.5 59.0Q70.0 59.0 70.3 58.6Q70.6 58.3 70.6 57.8L70.6 57.8L70.6 57.1L71.8 57.1L71.8 59.0L73.5 59.0L73.5 60.1L71.8 60.1L71.8 64.7Q71.8 65.1 71.9 65.4Q72.0 65.7 72.3 65.9Q72.6 66.0 73.1 66.0L73.1 66.0Q73.2 66.0 73.4 66.0Q73.5 66.0 73.7 66.0L73.7 66.0L73.7 67Q73.5 67.0 73.3 67.1Q73.0 67.1 72.9 67.1ZM76.8 67L75.6 67L75.6 59.0L76.8 59.0L76.8 67ZM76.8 57.5L75.6 57.5L75.6 55.8L76.8 55.8L76.8 57.5ZM80.2 67L79.1 67L79.1 59.0L80.2 59.0L80.2 60.5L79.9 60.5Q80.2 59.7 80.9 59.2Q81.6 58.8 82.5 58.8L82.5 58.8Q83.4 58.8 84.1 59.2Q84.7 59.6 85.1 60.2Q85.5 60.9 85.5 61.8L85.5 61.8L85.5 67L84.4 67L84.4 62.2Q84.4 61.5 84.1 61.0Q83.9 60.5 83.4 60.2Q82.9 59.9 82.3 59.9L82.3 59.9Q81.7 59.9 81.2 60.2Q80.7 60.5 80.5 61.0Q80.2 61.5 80.2 62.2L80.2 62.2L80.2 67ZM91.5 70.3L91.5 70.3Q90.7 70.3 90.0 70.0Q89.3 69.8 88.8 69.3Q88.3 68.9 88.0 68.3L88.0 68.3L89.0 67.8Q89.3 68.3 89.9 68.8Q90.5 69.2 91.5 69.2L91.5 69.2Q92.2 69.2 92.8 68.9Q93.4 68.6 93.8 68.0Q94.2 67.5 94.2 66.7L94.2 66.7L94.2 64.9L94.3 65.1Q93.9 65.9 93.1 66.4Q92.3 66.9 91.3 66.9L91.3 66.9Q90.2 66.9 89.3 66.3Q88.4 65.8 87.9 64.9Q87.3 64.0 87.3 62.8L87.3 62.8Q87.3 61.7 87.9 60.8Q88.4 59.9 89.3 59.3Q90.2 58.8 91.3 58.8L91.3 58.8Q92.3 58.8 93.1 59.2Q93.9 59.7 94.3 60.4L94.3 60.4L94.2 60.8L94.2 59.0L95.3 59.0L95.3 66.7Q95.3 67.7 94.8 68.5Q94.3 69.4 93.5 69.8Q92.6 70.3 91.5 70.3ZM91.4 65.8L91.4 65.8Q92.1 65.8 92.8 65.4Q93.4 65.0 93.8 64.3Q94.2 63.6 94.2 62.8L94.2 62.8Q94.2 62.0 93.8 61.4Q93.4 60.7 92.8 60.3Q92.1 59.9 91.4 59.9L91.4 59.9Q90.6 59.9 89.9 60.3Q89.3 60.7 88.9 61.4Q88.5 62.0 88.5 62.8L88.5 62.8Q88.5 63.6 88.9 64.3Q89.3 65.0 89.9 65.4Q90.6 65.8 91.4 65.8Z "/></g><mask id="satori_om-id-1-7"><rect x="101" y="50" width="85" height="23" fill="#fff"/></mask><g  ><path fill="#9198a1" d="M103.3 67L102.2 67L102.2 59.0L103.3 59.0L103.3 60.5L103.1 60.3Q103.4 59.6 104.1 59.2Q104.7 58.8 105.5 58.8L105.5 58.8Q106.4 58.8 107.2 59.3Q107.9 59.8 108.3 60.7L108.3 60.7L107.9 60.7Q108.2 59.8 109.0 59.3Q109.7 58.8 110.6 58.8L110.6 58.8Q111.4 58.8 112.1 59.2Q112.8 59.6 113.2 60.2Q113.6 60.9 113.6 61.8L113.6 61.8L113.6 67L112.5 67L112.5 62.2Q112.5 61.5 112.2 61.0Q112.0 60.5 111.5 60.2Q111.1 59.9 110.5 59.9L110.5 59.9Q109.9 59.9 109.5 60.2Q109.0 60.5 108.7 61.0Q108.5 61.5 108.5 62.2L108.5 62.2L108.5 67L107.3 67L107.3 62.2Q107.3 61.5 107.1 61.0Q106.8 60.5 106.4 60.2Q105.9 59.9 105.3 59.9L105.3 59.9Q104.7 59.9 104.3 60.2Q103.8 60.5 103.5 61.0Q103.3 61.5 103.3 62.2L103.3 62.2L103.3 67ZM118.6 67.2L118.6 67.2Q117.8 67.2 117.1 66.8Q116.4 66.4 116.0 65.7Q115.6 65.0 115.6 64.0L115.6 64.0L115.6 59.0L116.7 59.0L116.7 63.9Q116.7 64.5 117.0 65.0Q117.3 65.5 117.7 65.8Q118.2 66.1 118.8 66.1L118.8 66.1Q119.4 66.1 119.9 65.8Q120.4 65.5 120.7 65.0Q120.9 64.5 120.9 63.7L120.9 63.7L120.9 59.0L122.1 59.0L122.1 67L120.9 67L120.9 65.4L121.2 65.5Q120.9 66.3 120.2 66.7Q119.5 67.2 118.6 67.2ZM125.5 67L124.4 67L124.4 55.6L125.5 55.6L125.5 67ZM130.9 67.1L130.9 67.1Q129.8 67.1 129.2 66.5Q128.6 65.8 128.6 64.7L128.6 64.7L128.6 60.1L127.1 60.1L127.1 59.0L127.5 59.0Q128.0 59.0 128.3 58.6Q128.6 58.3 128.6 57.8L128.6 57.8L128.6 57.1L129.8 57.1L129.8 59.0L131.5 59.0L131.5 60.1L129.8 60.1L129.8 64.7Q129.8 65.1 129.9 65.4Q130.0 65.7 130.3 65.9Q130.6 66.0 131.1 66.0L131.1 66.0Q131.2 66.0 131.4 66.0Q131.5 66.0 131.6 66.0L131.6 66.0L131.6 67Q131.5 67.0 131.2 67.1Q131.0 67.1 130.9 67.1ZM134.8 67L133.6 67L133.6 59.0L134.8 59.0L134.8 67ZM134.8 57.5L133.6 57.5L133.6 55.8L134.8 55.8L134.8 57.5ZM142.3 63.5L137.0 63.5L137.0 62.5L142.3 62.5L142.3 63.5ZM146.9 67.2L146.9 67.2Q146.1 67.2 145.5 66.9Q144.9 66.6 144.5 66.1Q144.2 65.6 144.2 64.9L144.2 64.9Q144.2 64.3 144.5 63.8Q144.7 63.3 145.3 62.9Q145.9 62.5 146.8 62.4L146.8 62.4L149.9 61.9L149.9 62.9L147.0 63.4Q146.2 63.5 145.8 63.9Q145.4 64.3 145.4 64.9L145.4 64.9Q145.4 65.4 145.8 65.8Q146.3 66.2 146.9 66.2L146.9 66.2Q147.8 66.2 148.4 65.8Q149.0 65.5 149.3 64.9Q149.7 64.3 149.7 63.5L149.7 63.5L149.7 61.5Q149.7 60.8 149.2 60.3Q148.6 59.9 147.8 59.9L147.8 59.9Q147.1 59.9 146.5 60.2Q145.9 60.6 145.7 61.2L145.7 61.2L144.7 60.6Q144.9 60.1 145.4 59.7Q145.8 59.3 146.5 59.0Q147.1 58.8 147.8 58.8L147.8 58.8Q148.7 58.8 149.4 59.1Q150.0 59.5 150.4 60.1Q150.8 60.7 150.8 61.5L150.8 61.5L150.8 67L149.7 67L149.7 65.4L149.8 65.6Q149.6 66.0 149.2 66.4Q148.7 66.7 148.2 67.0Q147.6 67.2 146.9 67.2ZM156.9 70.3L156.9 70.3Q156.1 70.3 155.4 70.0Q154.7 69.8 154.2 69.3Q153.7 68.9 153.4 68.3L153.4 68.3L154.5 67.8Q154.7 68.3 155.3 68.8Q155.9 69.2 156.9 69.2L156.9 69.2Q157.6 69.2 158.2 68.9Q158.9 68.6 159.2 68.0Q159.6 67.5 159.6 66.7L159.6 66.7L159.6 64.9L159.8 65.1Q159.4 65.9 158.5 66.4Q157.7 66.9 156.7 66.9L156.7 66.9Q155.6 66.9 154.7 66.3Q153.8 65.8 153.3 64.9Q152.8 64.0 152.8 62.8L152.8 62.8Q152.8 61.7 153.3 60.8Q153.8 59.9 154.7 59.3Q155.6 58.8 156.7 58.8L156.7 58.8Q157.7 58.8 158.5 59.2Q159.3 59.7 159.8 60.4L159.8 60.4L159.6 60.8L159.6 59.0L160.7 59.0L160.7 66.7Q160.7 67.7 160.2 68.5Q159.8 69.4 158.9 69.8Q158.0 70.3 156.9 70.3ZM156.8 65.8L156.8 65.8Q157.6 65.8 158.2 65.4Q158.8 65.0 159.2 64.3Q159.6 63.6 159.6 62.8L159.6 62.8Q159.6 62.0 159.2 61.4Q158.8 60.7 158.2 60.3Q157.6 59.9 156.8 59.9L156.8 59.9Q156.0 59.9 155.4 60.3Q154.7 60.7 154.3 61.4Q154.0 62.0 154.0 62.8L154.0 62.8Q154.0 63.6 154.3 64.3Q154.7 65.0 155.4 65.4Q156.0 65.8 156.8 65.8ZM166.7 67.2L166.7 67.2Q165.6 67.2 164.7 66.6Q163.8 66.1 163.2 65.1Q162.7 64.2 162.7 63.0L162.7 63.0Q162.7 61.7 163.2 60.8Q163.7 59.9 164.6 59.3Q165.5 58.8 166.6 58.8L166.6 58.8Q167.5 58.8 168.1 59.1Q168.8 59.4 169.3 60.0Q169.8 60.5 170.0 61.2Q170.3 61.9 170.3 62.6L170.3 62.6Q170.3 62.8 170.3 62.9Q170.3 63.1 170.2 63.3L170.2 63.3L163.4 63.3L163.4 62.3L169.6 62.3L169.0 62.7Q169.2 61.9 168.9 61.2Q168.5 60.6 167.9 60.2Q167.3 59.8 166.6 59.8L166.6 59.8Q165.8 59.8 165.2 60.2Q164.6 60.6 164.2 61.3Q163.8 62.0 163.9 63.0L163.9 63.0Q163.8 63.9 164.2 64.6Q164.6 65.3 165.3 65.7Q165.9 66.1 166.7 66.1L166.7 66.1Q167.6 66.1 168.2 65.7Q168.8 65.3 169.2 64.7L169.2 64.7L170.1 65.2Q169.9 65.7 169.4 66.2Q168.9 66.6 168.2 66.9Q167.5 67.2 166.7 67.2ZM173.4 67L172.3 67L172.3 59.0L173.4 59.0L173.4 60.5L173.1 60.5Q173.4 59.7 174.1 59.2Q174.8 58.8 175.7 58.8L175.7 58.8Q176.6 58.8 177.2 59.2Q177.9 59.6 178.3 60.2Q178.7 60.9 178.7 61.8L178.7 61.8L178.7 67L177.6 67L177.6 62.2Q177.6 61.5 177.3 61.0Q177.1 60.5 176.6 60.2Q176.1 59.9 175.5 59.9L175.5 59.9Q174.9 59.9 174.4 60.2Q173.9 60.5 173.7 61.0Q173.4 61.5 173.4 62.2L173.4 62.2L173.4 67ZM183.9 67.1L183.9 67.1Q182.9 67.1 182.3 66.5Q181.7 65.8 181.7 64.7L181.7 64.7L181.7 60.1L180.2 60.1L180.2 59.0L180.6 59.0Q181.1 59.0 181.4 58.6Q181.7 58.3 181.7 57.8L181.7 57.8L181.7 57.1L182.8 57.1L182.8 59.0L184.6 59.0L184.6 60.1L182.8 60.1L182.8 64.7Q182.8 65.1 182.9 65.4Q183.1 65.7 183.3 65.9Q183.6 66.0 184.1 66.0L184.1 66.0Q184.3 66.0 184.4 66.0Q184.6 66.0 184.7 66.0L184.7 66.0L184.7 67Q184.5 67.0 184.3 67.1Q184.1 67.1 183.9 67.1Z "/></g><mask id="satori_om-id-1-8"><rect x="190" y="50" width="74" height="23" fill="#fff"/></mask><g  ><path fill="#9198a1" d="M194.1 67L192.9 67L190.2 59.0L191.4 59.0L193.7 66.0L193.3 66.0L195.4 59.0L196.5 59.0L198.7 66.0L198.2 66.0L200.5 59.0L201.8 59.0L199.0 67L197.9 67L195.8 60.1L196.1 60.1L194.1 67ZM206.7 67.2L206.7 67.2Q205.6 67.2 204.7 66.6Q203.7 66.1 203.2 65.1Q202.6 64.2 202.6 63.0L202.6 63.0Q202.6 61.8 203.2 60.8Q203.7 59.9 204.6 59.3Q205.6 58.8 206.7 58.8L206.7 58.8Q207.9 58.8 208.8 59.3Q209.7 59.9 210.3 60.8Q210.8 61.8 210.8 63.0L210.8 63.0Q210.8 64.2 210.3 65.1Q209.7 66.1 208.8 66.6Q207.8 67.2 206.7 67.2ZM206.7 66.1L206.7 66.1Q207.5 66.1 208.2 65.7Q208.8 65.2 209.2 64.5Q209.6 63.8 209.6 63.0L209.6 63.0Q209.6 62.1 209.2 61.4Q208.8 60.7 208.2 60.3Q207.5 59.9 206.7 59.9L206.7 59.9Q205.9 59.9 205.3 60.3Q204.6 60.7 204.2 61.4Q203.8 62.1 203.8 63.0L203.8 63.0Q203.8 63.8 204.2 64.5Q204.6 65.2 205.3 65.7Q205.9 66.1 206.7 66.1ZM213.9 67L212.8 67L212.8 59.0L213.9 59.0L213.9 60.3L213.8 60.1Q214.0 59.5 214.6 59.2Q215.2 58.9 216.0 58.9L216.0 58.9L216.5 58.9L216.5 60.0L215.8 60.0Q215.0 60.0 214.4 60.5Q213.9 61.1 213.9 62.0L213.9 62.0L213.9 67ZM219.0 67L217.9 67L217.9 55.6L219.0 55.6L219.0 63.6L218.5 63.5L223.0 59.0L224.5 59.0L221.3 62.2L224.8 67L223.4 67L220.2 62.5L220.9 62.6L218.6 65.0L219.0 64.0L219.0 67ZM228.0 67L226.9 67L226.9 60.1L225.3 60.1L225.3 59.0L226.9 59.0L226.9 58.2Q226.9 57.4 227.3 56.8Q227.6 56.2 228.3 55.9Q228.9 55.6 229.6 55.6L229.6 55.6Q229.7 55.6 229.9 55.7Q230.1 55.7 230.2 55.7L230.2 55.7L230.2 56.7Q230.1 56.7 230.0 56.7Q229.8 56.7 229.7 56.7L229.7 56.7Q229.0 56.7 228.5 57.0Q228.0 57.4 228.0 58.2L228.0 58.2L228.0 59.0L232.5 59.0L232.5 60.1L228.0 60.1L228.0 67ZM233.1 67L232.0 67L232.0 55.6L233.1 55.6L233.1 67ZM239.2 67.2L239.2 67.2Q238.0 67.2 237.1 66.6Q236.2 66.1 235.6 65.1Q235.1 64.2 235.1 63.0L235.1 63.0Q235.1 61.8 235.6 60.8Q236.2 59.9 237.1 59.3Q238 58.8 239.2 58.8L239.2 58.8Q240.3 58.8 241.3 59.3Q242.2 59.9 242.7 60.8Q243.3 61.8 243.3 63.0L243.3 63.0Q243.3 64.2 242.7 65.1Q242.1 66.1 241.2 66.6Q240.3 67.2 239.2 67.2ZM239.2 66.1L239.2 66.1Q240.0 66.1 240.6 65.7Q241.3 65.2 241.7 64.5Q242.1 63.8 242.1 63.0L242.1 63.0Q242.1 62.1 241.7 61.4Q241.3 60.7 240.6 60.3Q240.0 59.9 239.2 59.9L239.2 59.9Q238.4 59.9 237.7 60.3Q237.1 60.7 236.7 61.4Q236.3 62.1 236.3 63.0L236.3 63.0Q236.3 63.8 236.7 64.5Q237.1 65.2 237.7 65.7Q238.4 66.1 239.2 66.1ZM248.0 67L246.9 67L244.1 59.0L245.4 59.0L247.6 66.0L247.2 66.0L249.3 59.0L250.5 59.0L252.6 66.0L252.2 66.0L254.5 59.0L255.7 59.0L253.0 67L251.8 67L249.7 60.1L250.1 60.1L248.0 67ZM259.8 67.2L259.8 67.2Q258.7 67.2 257.8 66.6Q256.9 66.0 256.5 65.0L256.5 65.0L257.5 64.6Q257.8 65.3 258.5 65.7Q259.1 66.2 259.8 66.2L259.8 66.2Q260.5 66.2 261.0 65.8Q261.5 65.5 261.5 64.9L261.5 64.9Q261.5 64.5 261.3 64.2Q261.1 64.0 260.7 63.8Q260.4 63.7 260.2 63.6L260.2 63.6L259.0 63.3Q257.9 63.0 257.4 62.4Q256.9 61.9 256.9 61.1L256.9 61.1Q256.9 60.4 257.3 59.9Q257.7 59.4 258.3 59.1Q258.9 58.8 259.6 58.8L259.6 58.8Q260.7 58.8 261.5 59.3Q262.3 59.8 262.7 60.8L262.7 60.8L261.7 61.2Q261.4 60.6 260.8 60.2Q260.3 59.8 259.6 59.8L259.6 59.8Q258.9 59.8 258.5 60.1Q258.1 60.5 258.1 61.0L258.1 61.0Q258.1 61.4 258.3 61.7Q258.5 61.9 258.8 62.0Q259.1 62.1 259.3 62.2L259.3 62.2L260.6 62.6Q261.6 62.9 262.1 63.5Q262.7 64.1 262.7 64.9L262.7 64.9Q262.7 65.5 262.3 66.1Q262.0 66.6 261.3 66.9Q260.7 67.2 259.8 67.2Z "/></g><mask id="satori_om-id-1-9"><rect x="268" y="50" width="21" height="23" fill="#fff"/></mask><g  ><path fill="#9198a1" d="M271.1 67L270.0 67L270.0 60.1L268.4 60.1L268.4 59.0L270.0 59.0L270.0 58.2Q270.0 57.4 270.4 56.8Q270.7 56.2 271.3 55.9Q272.0 55.6 272.7 55.6L272.7 55.6Q272.8 55.6 273.0 55.7Q273.2 55.7 273.3 55.7L273.3 55.7L273.3 56.7Q273.2 56.7 273.0 56.7Q272.9 56.7 272.8 56.7L272.8 56.7Q272.1 56.7 271.6 57.0Q271.1 57.4 271.1 58.2L271.1 58.2L271.1 59.0L273.1 59.0L273.1 60.1L271.1 60.1L271.1 67ZM278.4 67.2L278.4 67.2Q277.2 67.2 276.3 66.6Q275.4 66.1 274.8 65.1Q274.3 64.2 274.3 63.0L274.3 63.0Q274.3 61.8 274.8 60.8Q275.3 59.9 276.3 59.3Q277.2 58.8 278.4 58.8L278.4 58.8Q279.5 58.8 280.5 59.3Q281.4 59.9 281.9 60.8Q282.4 61.8 282.4 63.0L282.4 63.0Q282.4 64.2 281.9 65.1Q281.3 66.1 280.4 66.6Q279.5 67.2 278.4 67.2ZM278.4 66.1L278.4 66.1Q279.2 66.1 279.8 65.7Q280.5 65.2 280.9 64.5Q281.2 63.8 281.2 63.0L281.2 63.0Q281.2 62.1 280.9 61.4Q280.5 60.7 279.8 60.3Q279.2 59.9 278.4 59.9L278.4 59.9Q277.6 59.9 276.9 60.3Q276.3 60.7 275.9 61.4Q275.5 62.1 275.5 63.0L275.5 63.0Q275.5 63.8 275.9 64.5Q276.3 65.2 276.9 65.7Q277.6 66.1 278.4 66.1ZM285.5 67L284.4 67L284.4 59.0L285.5 59.0L285.5 60.3L285.4 60.1Q285.7 59.5 286.3 59.2Q286.8 58.9 287.7 58.9L287.7 58.9L288.2 58.9L288.2 60.0L287.5 60.0Q286.6 60.0 286.1 60.5Q285.5 61.1 285.5 62.0L285.5 62.0L285.5 67Z "/></g><mask id="satori_om-id-1-10"><rect x="293" y="50" width="80" height="23" fill="#fff"/></mask><g  ><path fill="#9198a1" d="M297.8 67.2L297.8 67.2Q296.6 67.2 295.7 66.6Q294.8 66.1 294.3 65.1Q293.8 64.2 293.8 63.0L293.8 63.0Q293.8 61.8 294.3 60.8Q294.8 59.9 295.7 59.3Q296.6 58.8 297.8 58.8L297.8 58.8Q298.6 58.8 299.2 59.0Q299.9 59.3 300.4 59.8Q300.9 60.2 301.2 60.8L301.2 60.8L300.2 61.4Q299.9 60.7 299.2 60.3Q298.6 59.9 297.8 59.9L297.8 59.9Q297.0 59.9 296.4 60.3Q295.8 60.7 295.4 61.4Q295.0 62.1 295.0 63.0L295.0 63.0Q295.0 63.9 295.4 64.5Q295.8 65.2 296.4 65.7Q297.0 66.1 297.8 66.1L297.8 66.1Q298.6 66.1 299.2 65.7Q299.8 65.2 300.2 64.6L300.2 64.6L301.2 65.1Q300.9 65.7 300.4 66.2Q299.9 66.6 299.2 66.9Q298.6 67.2 297.8 67.2ZM306.9 67.2L306.9 67.2Q305.8 67.2 304.9 66.6Q303.9 66.1 303.4 65.1Q302.8 64.2 302.8 63.0L302.8 63.0Q302.8 61.8 303.4 60.8Q303.9 59.9 304.8 59.3Q305.8 58.8 306.9 58.8L306.9 58.8Q308.1 58.8 309.0 59.3Q309.9 59.9 310.5 60.8Q311 61.8 311 63.0L311 63.0Q311 64.2 310.4 65.1Q309.9 66.1 309.0 66.6Q308.0 67.2 306.9 67.2ZM306.9 66.1L306.9 66.1Q307.7 66.1 308.4 65.7Q309.0 65.2 309.4 64.5Q309.8 63.8 309.8 63.0L309.8 63.0Q309.8 62.1 309.4 61.4Q309.0 60.7 308.4 60.3Q307.7 59.9 306.9 59.9L306.9 59.9Q306.1 59.9 305.5 60.3Q304.8 60.7 304.4 61.4Q304.0 62.1 304.0 63.0L304.0 63.0Q304.0 63.8 304.4 64.5Q304.8 65.2 305.5 65.7Q306.1 66.1 306.9 66.1ZM314.1 67L313.0 67L313.0 59.0L314.1 59.0L314.1 60.5L313.8 60.5Q314.1 59.7 314.8 59.2Q315.5 58.8 316.4 58.8L316.4 58.8Q317.3 58.8 318.0 59.2Q318.6 59.6 319.0 60.2Q319.4 60.9 319.4 61.8L319.4 61.8L319.4 67L318.3 67L318.3 62.2Q318.3 61.5 318.0 61.0Q317.8 60.5 317.3 60.2Q316.8 59.9 316.2 59.9L316.2 59.9Q315.6 59.9 315.1 60.2Q314.6 60.5 314.4 61.0Q314.1 61.5 314.1 62.2L314.1 62.2L314.1 67ZM324.6 67.1L324.6 67.1Q323.6 67.1 323.0 66.5Q322.4 65.8 322.4 64.7L322.4 64.7L322.4 60.1L320.9 60.1L320.9 59.0L321.3 59.0Q321.8 59.0 322.1 58.6Q322.4 58.3 322.4 57.8L322.4 57.8L322.4 57.1L323.5 57.1L323.5 59.0L325.3 59.0L325.3 60.1L323.5 60.1L323.5 64.7Q323.5 65.1 323.6 65.4Q323.8 65.7 324.1 65.9Q324.3 66.0 324.8 66.0L324.8 66.0Q325.0 66.0 325.1 66.0Q325.3 66.0 325.4 66.0L325.4 66.0L325.4 67Q325.2 67.0 325.0 67.1Q324.8 67.1 324.6 67.1ZM328.5 67L327.4 67L327.4 59.0L328.5 59.0L328.5 67ZM328.5 57.5L327.4 57.5L327.4 55.8L328.5 55.8L328.5 57.5ZM332.0 67L330.8 67L330.8 59.0L332.0 59.0L332.0 60.5L331.7 60.5Q332.0 59.7 332.7 59.2Q333.4 58.8 334.3 58.8L334.3 58.8Q335.1 58.8 335.8 59.2Q336.5 59.6 336.9 60.2Q337.3 60.9 337.3 61.8L337.3 61.8L337.3 67L336.2 67L336.2 62.2Q336.2 61.5 335.9 61.0Q335.6 60.5 335.2 60.2Q334.7 59.9 334.1 59.9L334.1 59.9Q333.5 59.9 333.0 60.2Q332.5 60.5 332.2 61.0Q332.0 61.5 332.0 62.2L332.0 62.2L332.0 67ZM342.3 67.2L342.3 67.2Q341.4 67.2 340.7 66.8Q340.1 66.4 339.7 65.7Q339.3 65.0 339.3 64.0L339.3 64.0L339.3 59.0L340.4 59.0L340.4 63.9Q340.4 64.5 340.6 65.0Q340.9 65.5 341.4 65.8Q341.9 66.1 342.5 66.1L342.5 66.1Q343.1 66.1 343.6 65.8Q344.0 65.5 344.3 65.0Q344.6 64.5 344.6 63.7L344.6 63.7L344.6 59.0L345.7 59.0L345.7 67L344.6 67L344.6 65.4L344.8 65.5Q344.6 66.3 343.9 66.7Q343.2 67.2 342.3 67.2ZM351.8 67.2L351.8 67.2Q350.6 67.2 349.7 66.6Q348.8 66.1 348.2 65.1Q347.7 64.2 347.7 63.0L347.7 63.0Q347.7 61.8 348.2 60.8Q348.8 59.9 349.7 59.3Q350.6 58.8 351.8 58.8L351.8 58.8Q353.0 58.8 353.9 59.3Q354.8 59.9 355.3 60.8Q355.9 61.8 355.9 63.0L355.9 63.0Q355.9 64.2 355.3 65.1Q354.8 66.1 353.8 66.6Q352.9 67.2 351.8 67.2ZM351.8 66.1L351.8 66.1Q352.6 66.1 353.2 65.7Q353.9 65.2 354.3 64.5Q354.7 63.8 354.7 63.0L354.7 63.0Q354.7 62.1 354.3 61.4Q353.9 60.7 353.2 60.3Q352.6 59.9 351.8 59.9L351.8 59.9Q351.0 59.9 350.3 60.3Q349.7 60.7 349.3 61.4Q348.9 62.1 348.9 63.0L348.9 63.0Q348.9 63.8 349.3 64.5Q349.7 65.2 350.3 65.7Q351.0 66.1 351.8 66.1ZM360.7 67.2L360.7 67.2Q359.9 67.2 359.2 66.8Q358.5 66.4 358.1 65.7Q357.7 65.0 357.7 64.0L357.7 64.0L357.7 59.0L358.8 59.0L358.8 63.9Q358.8 64.5 359.1 65.0Q359.3 65.5 359.8 65.8Q360.3 66.1 360.9 66.1L360.9 66.1Q361.5 66.1 362.0 65.8Q362.5 65.5 362.7 65.0Q363.0 64.5 363.0 63.7L363.0 63.7L363.0 59.0L364.1 59.0L364.1 67L363.0 67L363.0 65.4L363.3 65.5Q363.0 66.3 362.3 66.7Q361.6 67.2 360.7 67.2ZM369.2 67.2L369.2 67.2Q368.1 67.2 367.2 66.6Q366.3 66.0 365.9 65.0L365.9 65.0L366.9 64.6Q367.2 65.3 367.9 65.7Q368.5 66.2 369.2 66.2L369.2 66.2Q369.9 66.2 370.4 65.8Q370.9 65.5 370.9 64.9L370.9 64.9Q370.9 64.5 370.7 64.2Q370.5 64.0 370.1 63.8Q369.8 63.7 369.6 63.6L369.6 63.6L368.4 63.3Q367.3 63.0 366.8 62.4Q366.3 61.9 366.3 61.1L366.3 61.1Q366.3 60.4 366.7 59.9Q367.1 59.4 367.7 59.1Q368.3 58.8 369.0 58.8L369.0 58.8Q370.1 58.8 370.9 59.3Q371.7 59.8 372.1 60.8L372.1 60.8L371.1 61.2Q370.8 60.6 370.2 60.2Q369.7 59.8 369.0 59.8L369.0 59.8Q368.3 59.8 367.9 60.1Q367.5 60.5 367.5 61.0L367.5 61.0Q367.5 61.4 367.7 61.7Q367.9 61.9 368.2 62.0Q368.5 62.1 368.7 62.2L368.7 62.2L370.0 62.6Q371.0 62.9 371.5 63.5Q372.1 64.1 372.1 64.9L372.1 64.9Q372.1 65.5 371.7 66.1Q371.4 66.6 370.7 66.9Q370.1 67.2 369.2 67.2Z "/></g><mask id="satori_om-id-1-11"><rect x="0" y="73" width="29" height="23" fill="#fff"/></mask><g  ><path fill="#9198a1" d="M7.5 90L1.3 90L1.3 78.8L2.5 78.8L2.5 88.9L7.5 88.9L7.5 90ZM15.4 90L9.3 90L9.3 78.8L10.5 78.8L10.5 88.9L15.4 88.9L15.4 90ZM18.4 90L17.3 90L17.3 78.8L18.3 78.8L22.5 84.9L21.9 84.9L26.1 78.8L27.1 78.8L27.1 90L25.9 90L25.9 80.4L26.3 80.6L22.2 86.5L22.2 86.5L18.1 80.6L18.4 80.4L18.4 90Z "/></g><mask id="satori_om-id-1-12"><rect x="33" y="73" width="57" height="23" fill="#fff"/></mask><g  ><path fill="#9198a1" d="M36.9 90.2L36.9 90.2Q35.8 90.2 34.9 89.6Q34.0 89.0 33.7 88.0L33.7 88.0L34.6 87.6Q35.0 88.3 35.6 88.7Q36.2 89.2 36.9 89.2L36.9 89.2Q37.7 89.2 38.2 88.8Q38.7 88.5 38.7 87.9L38.7 87.9Q38.7 87.5 38.4 87.2Q38.2 87.0 37.9 86.8Q37.5 86.7 37.3 86.6L37.3 86.6L36.1 86.3Q35.0 86.0 34.5 85.4Q34.0 84.9 34.0 84.1L34.0 84.1Q34.0 83.4 34.4 82.9Q34.8 82.3 35.4 82.1Q36 81.8 36.8 81.8L36.8 81.8Q37.8 81.8 38.6 82.3Q39.4 82.8 39.8 83.8L39.8 83.8L38.8 84.2Q38.5 83.6 38.0 83.2Q37.4 82.8 36.7 82.8L36.7 82.8Q36.0 82.8 35.6 83.1Q35.2 83.5 35.2 84.0L35.2 84.0Q35.2 84.4 35.4 84.7Q35.6 84.9 35.9 85.0Q36.2 85.1 36.4 85.2L36.4 85.2L37.7 85.6Q38.7 85.9 39.3 86.5Q39.8 87.1 39.8 87.9L39.8 87.9Q39.8 88.5 39.4 89.1Q39.1 89.6 38.4 89.9Q37.8 90.2 36.9 90.2ZM45.4 90.2L45.4 90.2Q44.3 90.2 43.4 89.6Q42.5 89.1 42.0 88.1Q41.5 87.2 41.5 86.0L41.5 86.0Q41.5 84.7 42.0 83.8Q42.5 82.9 43.4 82.3Q44.2 81.8 45.3 81.8L45.3 81.8Q46.2 81.8 46.9 82.1Q47.6 82.4 48.0 83.0Q48.5 83.5 48.8 84.2Q49.0 84.9 49.0 85.6L49.0 85.6Q49.0 85.8 49.0 85.9Q49.0 86.1 49.0 86.3L49.0 86.3L42.2 86.3L42.2 85.3L48.3 85.3L47.8 85.7Q47.9 84.9 47.6 84.2Q47.3 83.6 46.7 83.2Q46.1 82.8 45.3 82.8L45.3 82.8Q44.6 82.8 43.9 83.2Q43.3 83.6 42.9 84.3Q42.6 85.0 42.7 86.0L42.7 86.0Q42.6 86.9 43.0 87.6Q43.3 88.3 44.0 88.7Q44.7 89.1 45.4 89.1L45.4 89.1Q46.3 89.1 46.9 88.7Q47.5 88.3 47.9 87.7L47.9 87.7L48.9 88.2Q48.6 88.7 48.1 89.2Q47.6 89.6 47.0 89.9Q46.3 90.2 45.4 90.2ZM54.7 90.2L54.7 90.2Q53.5 90.2 52.6 89.6Q51.7 89.1 51.2 88.1Q50.7 87.2 50.7 86.0L50.7 86.0Q50.7 84.8 51.2 83.8Q51.7 82.9 52.6 82.3Q53.5 81.8 54.7 81.8L54.7 81.8Q55.4 81.8 56.1 82.0Q56.8 82.3 57.3 82.8Q57.8 83.2 58.0 83.8L58.0 83.8L57.0 84.4Q56.7 83.7 56.1 83.3Q55.5 82.9 54.7 82.9L54.7 82.9Q53.9 82.9 53.3 83.3Q52.6 83.7 52.3 84.4Q51.9 85.1 51.9 86.0L51.9 86.0Q51.9 86.8 52.3 87.5Q52.6 88.2 53.3 88.7Q53.9 89.1 54.7 89.1L54.7 89.1Q55.5 89.1 56.1 88.7Q56.7 88.2 57.0 87.6L57.0 87.6L58.0 88.1Q57.8 88.7 57.3 89.2Q56.8 89.6 56.1 89.9Q55.4 90.2 54.7 90.2ZM62.9 90.2L62.9 90.2Q62.0 90.2 61.3 89.8Q60.6 89.4 60.2 88.7Q59.9 88.0 59.9 87.0L59.9 87.0L59.9 82.0L61.0 82.0L61.0 86.9Q61.0 87.5 61.2 88.0Q61.5 88.5 62.0 88.8Q62.4 89.1 63.1 89.1L63.1 89.1Q63.7 89.1 64.2 88.8Q64.6 88.5 64.9 88.0Q65.2 87.5 65.2 86.7L65.2 86.7L65.2 82.0L66.3 82.0L66.3 90L65.2 90L65.2 88.4L65.4 88.5Q65.1 89.3 64.5 89.7Q63.8 90.2 62.9 90.2ZM69.7 90L68.6 90L68.6 82.0L69.7 82.0L69.7 83.3L69.6 83.1Q69.9 82.5 70.4 82.2Q71.0 81.9 71.8 81.9L71.8 81.9L72.4 81.9L72.4 83.0L71.7 83.0Q70.8 83.0 70.3 83.5Q69.7 84.1 69.7 85.0L69.7 85.0L69.7 90ZM74.8 90L73.7 90L73.7 82.0L74.8 82.0L74.8 90ZM74.8 80.5L73.7 80.5L73.7 78.8L74.8 78.8L74.8 80.5ZM80.2 90.1L80.2 90.1Q79.1 90.1 78.5 89.5Q77.9 88.8 77.9 87.7L77.9 87.7L77.9 83.1L76.5 83.1L76.5 82.0L76.8 82.0Q77.3 82.0 77.6 81.6Q77.9 81.3 77.9 80.8L77.9 80.8L77.9 80.1L79.1 80.1L79.1 82.0L80.8 82.0L80.8 83.1L79.1 83.1L79.1 87.7Q79.1 88.1 79.2 88.4Q79.3 88.7 79.6 88.9Q79.9 89.0 80.4 89.0L80.4 89.0Q80.5 89.0 80.7 89.0Q80.8 89.0 81.0 89.0L81.0 89.0L81.0 90Q80.8 90.0 80.5 90.1Q80.3 90.1 80.2 90.1ZM83.1 93.3L83.1 93.3Q82.9 93.3 82.6 93.3Q82.4 93.2 82.1 93.1L82.1 93.1L82.1 92.1Q82.3 92.1 82.5 92.1Q82.7 92.2 83.0 92.2L83.0 92.2Q83.7 92.2 84.1 91.9Q84.5 91.6 84.9 90.7L84.9 90.7L85.4 89.5L85.3 90.5L81.9 82.0L83.2 82.0L85.9 89.0L85.6 89.0L88.4 82.0L89.7 82.0L86.0 91.0Q85.7 91.6 85.4 92.1Q85.0 92.7 84.4 93.0Q83.9 93.3 83.1 93.3Z "/></g><mask id="satori_om-id-1-13"><rect x="94" y="73" width="51" height="23" fill="#fff"/></mask><g  ><path fill="#9198a1" d="M98.2 90.1L98.2 90.1Q97.2 90.1 96.6 89.5Q96.0 88.8 96.0 87.7L96.0 87.7L96.0 83.1L94.5 83.1L94.5 82.0L94.9 82.0Q95.4 82.0 95.7 81.6Q96.0 81.3 96.0 80.8L96.0 80.8L96.0 80.1L97.1 80.1L97.1 82.0L98.9 82.0L98.9 83.1L97.1 83.1L97.1 87.7Q97.1 88.1 97.2 88.4Q97.3 88.7 97.6 88.9Q97.9 89.0 98.4 89.0L98.4 89.0Q98.5 89.0 98.7 89.0Q98.9 89.0 99.0 89.0L99.0 89.0L99.0 90Q98.8 90.0 98.6 90.1Q98.4 90.1 98.2 90.1ZM104.3 90.2L104.3 90.2Q103.2 90.2 102.3 89.6Q101.4 89.1 100.9 88.1Q100.3 87.2 100.3 86.0L100.3 86.0Q100.3 84.7 100.9 83.8Q101.4 82.9 102.2 82.3Q103.1 81.8 104.2 81.8L104.2 81.8Q105.1 81.8 105.8 82.1Q106.4 82.4 106.9 83.0Q107.4 83.5 107.7 84.2Q107.9 84.9 107.9 85.6L107.9 85.6Q107.9 85.8 107.9 85.9Q107.9 86.1 107.9 86.3L107.9 86.3L101.1 86.3L101.1 85.3L107.2 85.3L106.7 85.7Q106.8 84.9 106.5 84.2Q106.2 83.6 105.6 83.2Q105.0 82.8 104.2 82.8L104.2 82.8Q103.5 82.8 102.8 83.2Q102.2 83.6 101.8 84.3Q101.5 85.0 101.5 86.0L101.5 86.0Q101.5 86.9 101.9 87.6Q102.2 88.3 102.9 88.7Q103.6 89.1 104.3 89.1L104.3 89.1Q105.2 89.1 105.8 88.7Q106.4 88.3 106.8 87.7L106.8 87.7L107.8 88.2Q107.5 88.7 107.0 89.2Q106.5 89.6 105.8 89.9Q105.2 90.2 104.3 90.2ZM112.7 90.2L112.7 90.2Q111.5 90.2 110.7 89.6Q109.8 89.0 109.4 88.0L109.4 88.0L110.3 87.6Q110.7 88.3 111.3 88.7Q111.9 89.2 112.7 89.2L112.7 89.2Q113.4 89.2 113.9 88.8Q114.4 88.5 114.4 87.9L114.4 87.9Q114.4 87.5 114.2 87.2Q113.9 87.0 113.6 86.8Q113.3 86.7 113.0 86.6L113.0 86.6L111.9 86.3Q110.8 86.0 110.3 85.4Q109.8 84.9 109.8 84.1L109.8 84.1Q109.8 83.4 110.2 82.9Q110.5 82.3 111.1 82.1Q111.7 81.8 112.5 81.8L112.5 81.8Q113.5 81.8 114.3 82.3Q115.2 82.8 115.5 83.8L115.5 83.8L114.6 84.2Q114.3 83.6 113.7 83.2Q113.1 82.8 112.4 82.8L112.4 82.8Q111.8 82.8 111.4 83.1Q111.0 83.5 111.0 84.0L111.0 84.0Q111.0 84.4 111.2 84.7Q111.4 84.9 111.7 85.0Q111.9 85.1 112.1 85.2L112.1 85.2L113.5 85.6Q114.5 85.9 115.0 86.5Q115.6 87.1 115.6 87.9L115.6 87.9Q115.6 88.5 115.2 89.1Q114.8 89.6 114.2 89.9Q113.5 90.2 112.7 90.2ZM120.6 90.1L120.6 90.1Q119.5 90.1 118.9 89.5Q118.4 88.8 118.4 87.7L118.4 87.7L118.4 83.1L116.9 83.1L116.9 82.0L117.3 82.0Q117.8 82.0 118.1 81.6Q118.4 81.3 118.4 80.8L118.4 80.8L118.4 80.1L119.5 80.1L119.5 82.0L121.3 82.0L121.3 83.1L119.5 83.1L119.5 87.7Q119.5 88.1 119.6 88.4Q119.7 88.7 120.0 88.9Q120.3 89.0 120.8 89.0L120.8 89.0Q120.9 89.0 121.1 89.0Q121.3 89.0 121.4 89.0L121.4 89.0L121.4 90Q121.2 90.0 121.0 90.1Q120.7 90.1 120.6 90.1ZM124.5 90L123.4 90L123.4 82.0L124.5 82.0L124.5 90ZM124.5 80.5L123.4 80.5L123.4 78.8L124.5 78.8L124.5 80.5ZM127.9 90L126.8 90L126.8 82.0L127.9 82.0L127.9 83.5L127.7 83.5Q128.0 82.7 128.6 82.2Q129.3 81.8 130.2 81.8L130.2 81.8Q131.1 81.8 131.8 82.2Q132.4 82.6 132.8 83.2Q133.2 83.9 133.2 84.8L133.2 84.8L133.2 90L132.1 90L132.1 85.2Q132.1 84.5 131.9 84.0Q131.6 83.5 131.1 83.2Q130.6 82.9 130.0 82.9L130.0 82.9Q129.4 82.9 128.9 83.2Q128.5 83.5 128.2 84.0Q127.9 84.5 127.9 85.2L127.9 85.2L127.9 90ZM139.2 93.3L139.2 93.3Q138.4 93.3 137.7 93.0Q137.0 92.8 136.5 92.3Q136.0 91.9 135.7 91.3L135.7 91.3L136.7 90.8Q137.0 91.3 137.6 91.8Q138.2 92.2 139.2 92.2L139.2 92.2Q139.9 92.2 140.5 91.9Q141.1 91.6 141.5 91.0Q141.9 90.5 141.9 89.7L141.9 89.7L141.9 87.9L142.1 88.1Q141.6 88.9 140.8 89.4Q140.0 89.9 139.0 89.9L139.0 89.9Q137.9 89.9 137.0 89.3Q136.1 88.8 135.6 87.9Q135.1 87.0 135.1 85.8L135.1 85.8Q135.1 84.7 135.6 83.8Q136.1 82.9 137.0 82.3Q137.9 81.8 139.0 81.8L139.0 81.8Q140.0 81.8 140.8 82.2Q141.6 82.7 142.1 83.4L142.1 83.4L141.9 83.8L141.9 82.0L143.0 82.0L143.0 89.7Q143.0 90.7 142.5 91.5Q142.0 92.4 141.2 92.8Q140.3 93.3 139.2 93.3ZM139.1 88.8L139.1 88.8Q139.9 88.8 140.5 88.4Q141.1 88.0 141.5 87.3Q141.9 86.6 141.9 85.8L141.9 85.8Q141.9 85.0 141.5 84.4Q141.1 83.7 140.5 83.3Q139.9 82.9 139.1 82.9L139.1 82.9Q138.3 82.9 137.6 83.3Q137.0 83.7 136.6 84.4Q136.3 85.0 136.3 85.8L136.3 85.8Q136.3 86.6 136.6 87.3Q137.0 88.0 137.6 88.4Q138.3 88.8 139.1 88.8Z "/></g><mask id="satori_om-id-1-14"><rect x="149" y="73" width="28" height="23" fill="#fff"/></mask><g  ><path fill="#9198a1" d="M152.5 90.2L152.5 90.2Q151.7 90.2 151.1 89.9Q150.5 89.6 150.2 89.1Q149.8 88.6 149.8 87.9L149.8 87.9Q149.8 87.3 150.1 86.8Q150.4 86.3 150.9 85.9Q151.5 85.5 152.4 85.4L152.4 85.4L155.5 84.9L155.5 85.9L152.7 86.4Q151.8 86.5 151.4 86.9Q151.0 87.3 151.0 87.9L151.0 87.9Q151.0 88.4 151.5 88.8Q151.9 89.2 152.6 89.2L152.6 89.2Q153.4 89.2 154.0 88.8Q154.6 88.5 155.0 87.9Q155.3 87.3 155.3 86.5L155.3 86.5L155.3 84.5Q155.3 83.8 154.8 83.3Q154.3 82.9 153.4 82.9L153.4 82.9Q152.7 82.9 152.1 83.2Q151.6 83.6 151.3 84.2L151.3 84.2L150.3 83.6Q150.5 83.1 151.0 82.7Q151.5 82.3 152.1 82.0Q152.7 81.8 153.4 81.8L153.4 81.8Q154.3 81.8 155.0 82.1Q155.7 82.5 156.0 83.1Q156.4 83.7 156.4 84.5L156.4 84.5L156.4 90L155.3 90L155.3 88.4L155.5 88.6Q155.3 89.0 154.8 89.4Q154.4 89.7 153.8 90.0Q153.2 90.2 152.5 90.2ZM159.9 90L158.7 90L158.7 82.0L159.9 82.0L159.9 83.5L159.6 83.5Q159.9 82.7 160.6 82.2Q161.3 81.8 162.2 81.8L162.2 81.8Q163.0 81.8 163.7 82.2Q164.4 82.6 164.8 83.2Q165.2 83.9 165.2 84.8L165.2 84.8L165.2 90L164.1 90L164.1 85.2Q164.1 84.5 163.8 84.0Q163.5 83.5 163.1 83.2Q162.6 82.9 162.0 82.9L162.0 82.9Q161.4 82.9 160.9 83.2Q160.4 83.5 160.1 84.0Q159.9 84.5 159.9 85.2L159.9 85.2L159.9 90ZM171.0 90.2L171.0 90.2Q169.8 90.2 168.9 89.6Q168.0 89.1 167.5 88.1Q167 87.2 167 86.0L167 86.0Q167 84.8 167.5 83.8Q168.0 82.9 168.9 82.3Q169.8 81.8 171.0 81.8L171.0 81.8Q172.0 81.8 172.8 82.2Q173.6 82.7 174.1 83.4L174.1 83.4L173.9 83.8L173.9 78.6L175.0 78.6L175.0 90L173.9 90L173.9 88.2L174.1 88.4Q173.7 89.2 172.8 89.7Q172.0 90.2 171.0 90.2ZM171.0 89.1L171.0 89.1Q171.8 89.1 172.5 88.7Q173.1 88.2 173.5 87.5Q173.9 86.8 173.9 86.0L173.9 86.0Q173.9 85.1 173.5 84.4Q173.1 83.7 172.5 83.3Q171.8 82.9 171.0 82.9L171.0 82.9Q170.2 82.9 169.6 83.3Q168.9 83.7 168.6 84.4Q168.2 85.1 168.2 86.0L168.2 86.0Q168.2 86.8 168.6 87.5Q168.9 88.2 169.6 88.7Q170.2 89.1 171.0 89.1Z "/></g><mask id="satori_om-id-1-15"><rect x="181" y="73" width="86" height="23" fill="#fff"/></mask><g  ><path fill="#9198a1" d="M184.9 90.2L184.9 90.2Q183.8 90.2 182.9 89.6Q182.1 89.0 181.7 88.0L181.7 88.0L182.6 87.6Q182.9 88.3 183.6 88.7Q184.2 89.2 184.9 89.2L184.9 89.2Q185.7 89.2 186.2 88.8Q186.7 88.5 186.7 87.9L186.7 87.9Q186.7 87.5 186.4 87.2Q186.2 87.0 185.9 86.8Q185.5 86.7 185.3 86.6L185.3 86.6L184.2 86.3Q183.0 86.0 182.5 85.4Q182.1 84.9 182.1 84.1L182.1 84.1Q182.1 83.4 182.4 82.9Q182.8 82.3 183.4 82.1Q184 81.8 184.8 81.8L184.8 81.8Q185.8 81.8 186.6 82.3Q187.4 82.8 187.8 83.8L187.8 83.8L186.8 84.2Q186.5 83.6 186.0 83.2Q185.4 82.8 184.7 82.8L184.7 82.8Q184.0 82.8 183.6 83.1Q183.2 83.5 183.2 84.0L183.2 84.0Q183.2 84.4 183.4 84.7Q183.6 84.9 183.9 85.0Q184.2 85.1 184.4 85.2L184.4 85.2L185.7 85.6Q186.7 85.9 187.3 86.5Q187.8 87.1 187.8 87.9L187.8 87.9Q187.8 88.5 187.4 89.1Q187.1 89.6 186.4 89.9Q185.8 90.2 184.9 90.2ZM193.4 90.2L193.4 90.2Q192.3 90.2 191.4 89.6Q190.5 89.1 190.0 88.1Q189.5 87.2 189.5 86.0L189.5 86.0Q189.5 84.7 190.0 83.8Q190.5 82.9 191.4 82.3Q192.2 81.8 193.3 81.8L193.3 81.8Q194.2 81.8 194.9 82.1Q195.6 82.4 196.0 83.0Q196.5 83.5 196.8 84.2Q197.0 84.9 197.0 85.6L197.0 85.6Q197.0 85.8 197.0 85.9Q197.0 86.1 197.0 86.3L197.0 86.3L190.2 86.3L190.2 85.3L196.3 85.3L195.8 85.7Q195.9 84.9 195.6 84.2Q195.3 83.6 194.7 83.2Q194.1 82.8 193.3 82.8L193.3 82.8Q192.6 82.8 191.9 83.2Q191.3 83.6 190.9 84.3Q190.6 85.0 190.7 86.0L190.7 86.0Q190.6 86.9 191.0 87.6Q191.3 88.3 192.0 88.7Q192.7 89.1 193.4 89.1L193.4 89.1Q194.3 89.1 194.9 88.7Q195.5 88.3 195.9 87.7L195.9 87.7L196.9 88.2Q196.6 88.7 196.1 89.2Q195.6 89.6 195.0 89.9Q194.3 90.2 193.4 90.2ZM200.1 90L199.0 90L199.0 78.6L200.1 78.6L200.1 90ZM204.4 90L203.3 90L203.3 83.1L201.7 83.1L201.7 82.0L203.3 82.0L203.3 81.2Q203.3 80.4 203.6 79.8Q204.0 79.2 204.6 78.9Q205.3 78.6 206.0 78.6L206.0 78.6Q206.1 78.6 206.3 78.7Q206.5 78.7 206.6 78.7L206.6 78.7L206.6 79.7Q206.5 79.7 206.3 79.7Q206.2 79.7 206.1 79.7L206.1 79.7Q205.4 79.7 204.9 80.0Q204.4 80.4 204.4 81.2L204.4 81.2L204.4 82.0L206.4 82.0L206.4 83.1L204.4 83.1L204.4 90ZM213.6 86.5L208.3 86.5L208.3 85.5L213.6 85.5L213.6 86.5ZM216.9 90L215.8 90L215.8 78.6L216.9 78.6L216.9 83.5L216.7 83.5Q217.0 82.7 217.7 82.2Q218.3 81.8 219.3 81.8L219.3 81.8Q220.1 81.8 220.8 82.2Q221.5 82.6 221.9 83.2Q222.3 83.9 222.3 84.8L222.3 84.8L222.3 90L221.1 90L221.1 85.2Q221.1 84.5 220.9 84.0Q220.6 83.5 220.1 83.2Q219.7 82.9 219.1 82.9L219.1 82.9Q218.5 82.9 218.0 83.2Q217.5 83.5 217.2 84.0Q216.9 84.5 216.9 85.2L216.9 85.2L216.9 90ZM228.1 90.2L228.1 90.2Q226.9 90.2 226.0 89.6Q225.1 89.1 224.6 88.1Q224.1 87.2 224.1 86.0L224.1 86.0Q224.1 84.7 224.6 83.8Q225.1 82.9 226.0 82.3Q226.9 81.8 227.9 81.8L227.9 81.8Q228.8 81.8 229.5 82.1Q230.2 82.4 230.7 83.0Q231.1 83.5 231.4 84.2Q231.7 84.9 231.7 85.6L231.7 85.6Q231.7 85.8 231.6 85.9Q231.6 86.1 231.6 86.3L231.6 86.3L224.8 86.3L224.8 85.3L230.9 85.3L230.4 85.7Q230.5 84.9 230.2 84.2Q229.9 83.6 229.3 83.2Q228.7 82.8 227.9 82.8L227.9 82.8Q227.2 82.8 226.6 83.2Q225.9 83.6 225.6 84.3Q225.2 85.0 225.3 86.0L225.3 86.0Q225.2 86.9 225.6 87.6Q226.0 88.3 226.6 88.7Q227.3 89.1 228.1 89.1L228.1 89.1Q229.0 89.1 229.6 88.7Q230.2 88.3 230.5 87.7L230.5 87.7L231.5 88.2Q231.3 88.7 230.8 89.2Q230.3 89.6 229.6 89.9Q228.9 90.2 228.1 90.2ZM235.8 90.2L235.8 90.2Q235.0 90.2 234.4 89.9Q233.8 89.6 233.5 89.1Q233.2 88.6 233.2 87.9L233.2 87.9Q233.2 87.3 233.4 86.8Q233.7 86.3 234.3 85.9Q234.8 85.5 235.7 85.4L235.7 85.4L238.9 84.9L238.9 85.9L236.0 86.4Q235.1 86.5 234.7 86.9Q234.4 87.3 234.4 87.9L234.4 87.9Q234.4 88.4 234.8 88.8Q235.2 89.2 235.9 89.2L235.9 89.2Q236.7 89.2 237.3 88.8Q237.9 88.5 238.3 87.9Q238.6 87.3 238.6 86.5L238.6 86.5L238.6 84.5Q238.6 83.8 238.1 83.3Q237.6 82.9 236.7 82.9L236.7 82.9Q236.0 82.9 235.4 83.2Q234.9 83.6 234.6 84.2L234.6 84.2L233.6 83.6Q233.8 83.1 234.3 82.7Q234.8 82.3 235.4 82.0Q236.1 81.8 236.7 81.8L236.7 81.8Q237.6 81.8 238.3 82.1Q239.0 82.5 239.4 83.1Q239.8 83.7 239.8 84.5L239.8 84.5L239.8 90L238.6 90L238.6 88.4L238.8 88.6Q238.6 89.0 238.1 89.4Q237.7 89.7 237.1 90.0Q236.5 90.2 235.8 90.2ZM243.2 90L242.1 90L242.1 78.6L243.2 78.6L243.2 90ZM246.6 90L245.5 90L245.5 82.0L246.6 82.0L246.6 90ZM246.6 80.5L245.5 80.5L245.5 78.8L246.6 78.8L246.6 80.5ZM250.1 90L248.9 90L248.9 82.0L250.1 82.0L250.1 83.5L249.8 83.5Q250.1 82.7 250.8 82.2Q251.5 81.8 252.4 81.8L252.4 81.8Q253.2 81.8 253.9 82.2Q254.6 82.6 255.0 83.2Q255.4 83.9 255.4 84.8L255.4 84.8L255.4 90L254.3 90L254.3 85.2Q254.3 84.5 254.0 84.0Q253.7 83.5 253.3 83.2Q252.8 82.9 252.2 82.9L252.2 82.9Q251.6 82.9 251.1 83.2Q250.6 83.5 250.3 84.0Q250.1 84.5 250.1 85.2L250.1 85.2L250.1 90ZM261.3 93.3L261.3 93.3Q260.5 93.3 259.8 93.0Q259.1 92.8 258.6 92.3Q258.1 91.9 257.8 91.3L257.8 91.3L258.9 90.8Q259.1 91.3 259.7 91.8Q260.4 92.2 261.3 92.2L261.3 92.2Q262.0 92.2 262.7 91.9Q263.3 91.6 263.6 91.0Q264.0 90.5 264.0 89.7L264.0 89.7L264.0 87.9L264.2 88.1Q263.8 88.9 263.0 89.4Q262.1 89.9 261.2 89.9L261.2 89.9Q260.0 89.9 259.1 89.3Q258.2 88.8 257.7 87.9Q257.2 87.0 257.2 85.8L257.2 85.8Q257.2 84.7 257.7 83.8Q258.2 82.9 259.1 82.3Q260.0 81.8 261.2 81.8L261.2 81.8Q262.1 81.8 262.9 82.2Q263.7 82.7 264.2 83.4L264.2 83.4L264.0 83.8L264.0 82.0L265.1 82.0L265.1 89.7Q265.1 90.7 264.7 91.5Q264.2 92.4 263.3 92.8Q262.4 93.3 261.3 93.3ZM261.2 88.8L261.2 88.8Q262 88.8 262.6 88.4Q263.3 88.0 263.6 87.3Q264.0 86.6 264.0 85.8L264.0 85.8Q264.0 85.0 263.6 84.4Q263.3 83.7 262.6 83.3Q262 82.9 261.2 82.9L261.2 82.9Q260.4 82.9 259.8 83.3Q259.1 83.7 258.8 84.4Q258.4 85.0 258.4 85.8L258.4 85.8Q258.4 86.6 258.8 87.3Q259.1 88.0 259.8 88.4Q260.4 88.8 261.2 88.8Z "/></g><mask id="satori_om-id-1-16"><rect x="271" y="73" width="72" height="23" fill="#fff"/></mask><g  ><path fill="#9198a1" d="M275.8 90.2L275.8 90.2Q274.7 90.2 273.8 89.6Q272.9 89.1 272.3 88.1Q271.8 87.2 271.8 86.0L271.8 86.0Q271.8 84.8 272.3 83.8Q272.9 82.9 273.8 82.3Q274.6 81.8 275.8 81.8L275.8 81.8Q276.8 81.8 277.6 82.2Q278.4 82.7 278.9 83.4L278.9 83.4L278.7 83.8L278.7 78.6L279.9 78.6L279.9 90L278.7 90L278.7 88.2L278.9 88.4Q278.5 89.2 277.7 89.7Q276.8 90.2 275.8 90.2ZM275.8 89.1L275.8 89.1Q276.7 89.1 277.3 88.7Q278.0 88.2 278.3 87.5Q278.7 86.8 278.7 86.0L278.7 86.0Q278.7 85.1 278.3 84.4Q278.0 83.7 277.3 83.3Q276.7 82.9 275.8 82.9L275.8 82.9Q275.1 82.9 274.4 83.3Q273.8 83.7 273.4 84.4Q273.0 85.1 273.0 86.0L273.0 86.0Q273.0 86.8 273.4 87.5Q273.8 88.2 274.4 88.7Q275.0 89.1 275.8 89.1ZM285.8 90.2L285.8 90.2Q284.7 90.2 283.8 89.6Q282.9 89.1 282.4 88.1Q281.8 87.2 281.8 86.0L281.8 86.0Q281.8 84.7 282.3 83.8Q282.9 82.9 283.7 82.3Q284.6 81.8 285.7 81.8L285.7 81.8Q286.6 81.8 287.3 82.1Q287.9 82.4 288.4 83.0Q288.9 83.5 289.1 84.2Q289.4 84.9 289.4 85.6L289.4 85.6Q289.4 85.8 289.4 85.9Q289.4 86.1 289.3 86.3L289.3 86.3L282.6 86.3L282.6 85.3L288.7 85.3L288.2 85.7Q288.3 84.9 288.0 84.2Q287.6 83.6 287.1 83.2Q286.4 82.8 285.7 82.8L285.7 82.8Q284.9 82.8 284.3 83.2Q283.7 83.6 283.3 84.3Q283.0 85.0 283.0 86.0L283.0 86.0Q283.0 86.9 283.3 87.6Q283.7 88.3 284.4 88.7Q285.1 89.1 285.8 89.1L285.8 89.1Q286.7 89.1 287.3 88.7Q287.9 88.3 288.3 87.7L288.3 87.7L289.2 88.2Q289 88.7 288.5 89.2Q288.0 89.6 287.3 89.9Q286.6 90.2 285.8 90.2ZM293.3 90L292.2 90L292.2 83.1L290.6 83.1L290.6 82.0L292.2 82.0L292.2 81.2Q292.2 80.4 292.6 79.8Q293.0 79.2 293.6 78.9Q294.2 78.6 294.9 78.6L294.9 78.6Q295.0 78.6 295.2 78.7Q295.4 78.7 295.6 78.7L295.6 78.7L295.6 79.7Q295.5 79.7 295.3 79.7Q295.1 79.7 295.0 79.7L295.0 79.7Q294.3 79.7 293.8 80.0Q293.3 80.4 293.3 81.2L293.3 81.2L293.3 82.0L295.3 82.0L295.3 83.1L293.3 83.1L293.3 90ZM300.5 90.2L300.5 90.2Q299.4 90.2 298.5 89.6Q297.6 89.1 297.0 88.1Q296.5 87.2 296.5 86.0L296.5 86.0Q296.5 84.7 297.0 83.8Q297.5 82.9 298.4 82.3Q299.3 81.8 300.4 81.8L300.4 81.8Q301.2 81.8 301.9 82.1Q302.6 82.4 303.1 83.0Q303.6 83.5 303.8 84.2Q304.1 84.9 304.1 85.6L304.1 85.6Q304.1 85.8 304.1 85.9Q304.0 86.1 304.0 86.3L304.0 86.3L297.2 86.3L297.2 85.3L303.4 85.3L302.8 85.7Q303.0 84.9 302.6 84.2Q302.3 83.6 301.7 83.2Q301.1 82.8 300.4 82.8L300.4 82.8Q299.6 82.8 299.0 83.2Q298.3 83.6 298.0 84.3Q297.6 85.0 297.7 86.0L297.7 86.0Q297.6 86.9 298.0 87.6Q298.4 88.3 299.1 88.7Q299.7 89.1 300.5 89.1L300.5 89.1Q301.4 89.1 302.0 88.7Q302.6 88.3 302.9 87.7L302.9 87.7L303.9 88.2Q303.7 88.7 303.2 89.2Q302.7 89.6 302.0 89.9Q301.3 90.2 300.5 90.2ZM307.2 90L306.1 90L306.1 82.0L307.2 82.0L307.2 83.5L306.9 83.5Q307.2 82.7 307.9 82.2Q308.6 81.8 309.5 81.8L309.5 81.8Q310.3 81.8 311.0 82.2Q311.7 82.6 312.1 83.2Q312.5 83.9 312.5 84.8L312.5 84.8L312.5 90L311.4 90L311.4 85.2Q311.4 84.5 311.1 84.0Q310.9 83.5 310.4 83.2Q309.9 82.9 309.3 82.9L309.3 82.9Q308.7 82.9 308.2 83.2Q307.7 83.5 307.5 84.0Q307.2 84.5 307.2 85.2L307.2 85.2L307.2 90ZM317.4 90.2L317.4 90.2Q316.3 90.2 315.4 89.6Q314.5 89.0 314.2 88.0L314.2 88.0L315.1 87.6Q315.4 88.3 316.1 88.7Q316.7 89.2 317.4 89.2L317.4 89.2Q318.2 89.2 318.7 88.8Q319.1 88.5 319.1 87.9L319.1 87.9Q319.1 87.5 318.9 87.2Q318.7 87.0 318.4 86.8Q318.0 86.7 317.8 86.6L317.8 86.6L316.6 86.3Q315.5 86.0 315.0 85.4Q314.5 84.9 314.5 84.1L314.5 84.1Q314.5 83.4 314.9 82.9Q315.3 82.3 315.9 82.1Q316.5 81.8 317.2 81.8L317.2 81.8Q318.3 81.8 319.1 82.3Q319.9 82.8 320.3 83.8L320.3 83.8L319.3 84.2Q319.0 83.6 318.5 83.2Q317.9 82.8 317.2 82.8L317.2 82.8Q316.5 82.8 316.1 83.1Q315.7 83.5 315.7 84.0L315.7 84.0Q315.7 84.4 315.9 84.7Q316.1 84.9 316.4 85.0Q316.7 85.1 316.9 85.2L316.9 85.2L318.2 85.6Q319.2 85.9 319.8 86.5Q320.3 87.1 320.3 87.9L320.3 87.9Q320.3 88.5 319.9 89.1Q319.6 89.6 318.9 89.9Q318.3 90.2 317.4 90.2ZM325.9 90.2L325.9 90.2Q324.8 90.2 323.9 89.6Q323.0 89.1 322.5 88.1Q322.0 87.2 322.0 86.0L322.0 86.0Q322.0 84.7 322.5 83.8Q323.0 82.9 323.9 82.3Q324.7 81.8 325.8 81.8L325.8 81.8Q326.7 81.8 327.4 82.1Q328.1 82.4 328.5 83.0Q329.0 83.5 329.3 84.2Q329.5 84.9 329.5 85.6L329.5 85.6Q329.5 85.8 329.5 85.9Q329.5 86.1 329.5 86.3L329.5 86.3L322.7 86.3L322.7 85.3L328.8 85.3L328.3 85.7Q328.4 84.9 328.1 84.2Q327.8 83.6 327.2 83.2Q326.6 82.8 325.8 82.8L325.8 82.8Q325.1 82.8 324.4 83.2Q323.8 83.6 323.4 84.3Q323.1 85.0 323.2 86.0L323.2 86.0Q323.1 86.9 323.5 87.6Q323.8 88.3 324.5 88.7Q325.2 89.1 325.9 89.1L325.9 89.1Q326.8 89.1 327.4 88.7Q328.0 88.3 328.4 87.7L328.4 87.7L329.4 88.2Q329.1 88.7 328.6 89.2Q328.1 89.6 327.5 89.9Q326.8 90.2 325.9 90.2ZM334.3 90.2L334.3 90.2Q333.1 90.2 332.3 89.6Q331.4 89.0 331.0 88.0L331.0 88.0L332.0 87.6Q332.3 88.3 332.9 88.7Q333.6 89.2 334.3 89.2L334.3 89.2Q335.0 89.2 335.5 88.8Q336.0 88.5 336.0 87.9L336.0 87.9Q336.0 87.5 335.8 87.2Q335.5 87.0 335.2 86.8Q334.9 86.7 334.7 86.6L334.7 86.6L333.5 86.3Q332.4 86.0 331.9 85.4Q331.4 84.9 331.4 84.1L331.4 84.1Q331.4 83.4 331.8 82.9Q332.1 82.3 332.7 82.1Q333.4 81.8 334.1 81.8L334.1 81.8Q335.1 81.8 336.0 82.3Q336.8 82.8 337.1 83.8L337.1 83.8L336.2 84.2Q335.9 83.6 335.3 83.2Q334.8 82.8 334.1 82.8L334.1 82.8Q333.4 82.8 333.0 83.1Q332.6 83.5 332.6 84.0L332.6 84.0Q332.6 84.4 332.8 84.7Q333.0 84.9 333.3 85.0Q333.6 85.1 333.8 85.2L333.8 85.2L335.1 85.6Q336.1 85.9 336.6 86.5Q337.2 87.1 337.2 87.9L337.2 87.9Q337.2 88.5 336.8 89.1Q336.4 89.6 335.8 89.9Q335.1 90.2 334.3 90.2ZM340.7 90L339.5 90L339.5 88.3L340.7 88.3L340.7 90Z "/></g></g></svg>